<svg version="1.0" xmlns="http://www.w3.org/2000/svg"
 width="300.000000pt" height="169.000000pt" viewBox="0 0 300.000000 169.000000"
 preserveAspectRatio="xMidYMid meet">
<g transform="translate(0.000000,169.000000) scale(0.100000,-0.100000)"
fill="#000000" stroke="none">
<path d="M528 1683 c283 -2 742 -2 1020 0 279 1 48 2 -513 2 -561 0 -789 -1
-507 -2z"/>
<path d="M1244 1584 c17 -17 35 -28 40 -23 13 12 -2 42 -19 36 -9 -4 -12 -1
-8 8 4 11 -2 14 -19 13 l-25 -2 31 -32z"/>
<path d="M954 1498 c3 -17 6 -38 7 -47 1 -9 5 -2 9 14 4 17 10 37 14 45 5 11
0 16 -15 17 -19 2 -21 -2 -15 -29z"/>
<path d="M1105 1521 c6 -6 19 -12 30 -14 89 -15 129 -33 166 -76 47 -53 50
-46 7 20 -27 42 -36 49 -63 49 -18 0 -45 4 -61 9 -56 18 -90 23 -79 12z"/>
<path d="M914 1390 c-13 -41 -17 -67 -11 -72 6 -3 1 -17 -12 -34 -14 -18 -21
-39 -19 -61 3 -42 15 -44 16 -2 0 17 7 40 15 52 19 31 29 59 17 52 -13 -8 -13
-4 6 50 8 26 14 54 12 63 -2 9 -13 -12 -24 -48z"/>
<path d="M1070 1406 c10 -10 41 -18 80 -22 45 -5 72 -13 88 -27 19 -18 24 -16
21 11 -1 4 -5 6 -11 4 -5 -1 -12 6 -15 17 -4 17 -9 18 -30 10 -23 -9 -41 -6
-128 18 -18 5 -19 4 -5 -11z"/>
<path d="M2995 675 c0 -374 1 -526 2 -337 2 189 2 495 0 680 -1 185 -2 31 -2
-343z"/>
<path d="M1260 1315 c0 -8 9 -15 19 -15 21 0 61 -44 61 -66 0 -17 -37 -37 -56
-30 -9 3 -12 1 -9 -4 13 -21 -13 -8 -40 20 -16 17 -38 30 -50 30 -12 0 -36 11
-55 25 -45 33 -60 32 -27 -2 22 -24 25 -34 20 -71 -6 -42 -41 -93 -73 -104 -8
-3 -12 -9 -8 -13 4 -4 19 0 33 9 28 19 35 10 8 -10 -10 -7 -13 -14 -6 -14 6 0
15 5 18 10 9 14 25 12 25 -3 0 -8 8 -22 19 -31 16 -14 19 -15 24 -2 4 9 -4 21
-19 30 -14 10 -24 26 -24 40 0 33 38 116 54 116 7 0 30 -13 52 -30 40 -30 64
-38 64 -20 0 6 11 10 24 10 14 0 27 4 31 10 9 15 64 -48 58 -69 -3 -11 2 -21
11 -24 9 -4 16 -14 16 -24 0 -14 2 -15 9 -5 10 17 2 65 -13 74 -6 4 -11 11
-11 15 0 23 -92 127 -133 151 -19 10 -22 10 -22 -3z"/>
<path d="M2901 1281 c-24 -10 -51 -27 -60 -39 -12 -17 -28 -22 -73 -23 -31 -1
-55 -6 -52 -10 2 -4 -4 -13 -13 -19 -15 -9 -13 -10 12 -5 17 4 48 9 70 12 22
3 51 15 65 28 32 29 63 45 89 45 20 0 29 14 14 23 -5 3 -28 -3 -52 -12z"/>
<path d="M0 1234 c0 -17 28 -25 91 -24 142 2 172 0 198 -19 14 -10 52 -29 83
-44 39 -17 66 -38 87 -67 16 -22 41 -50 56 -61 14 -12 32 -37 40 -56 9 -20 21
-41 29 -47 7 -6 19 -33 25 -61 14 -59 36 -95 56 -95 10 0 15 -10 15 -29 0 -16
7 -34 15 -41 13 -11 15 -8 14 21 0 31 -17 87 -18 65 -1 -6 -10 0 -21 11 -23
25 -37 73 -22 73 6 0 1 10 -11 23 -20 21 -58 81 -63 100 -1 4 -3 10 -4 15 -1
4 -2 10 -1 15 0 4 -5 7 -13 7 -8 0 -34 26 -58 57 -46 61 -94 99 -137 110 -14
3 -41 18 -60 32 -33 25 -40 26 -168 27 -102 1 -133 -2 -133 -12z"/>
<path d="M2888 1208 c-5 -13 14 -78 22 -78 5 0 6 15 1 73 -1 19 -17 23 -23 5z"/>
<path d="M770 1196 c0 -9 -8 -16 -17 -16 -15 0 -14 -2 3 -15 23 -17 43 -20 26
-3 -8 8 -8 15 -1 24 7 8 7 14 -1 19 -5 3 -10 -1 -10 -9z"/>
<path d="M180 1171 c-19 -4 -43 -12 -54 -18 -14 -7 8 -10 85 -10 97 -1 101 0
75 14 -36 19 -62 22 -106 14z"/>
<path d="M2508 1162 c-38 -17 -50 -32 -25 -32 13 0 77 37 77 45 0 8 -13 5 -52
-13z"/>
<path d="M875 1093 c8 -87 14 -112 34 -133 9 -9 24 -30 33 -46 10 -16 22 -36
28 -44 5 -8 14 -27 19 -42 9 -24 12 -26 35 -15 25 12 26 30 1 20 -8 -3 -15 0
-15 6 0 6 6 11 13 11 6 0 0 10 -15 21 -16 12 -28 30 -28 43 0 14 -10 28 -25
36 -14 7 -25 19 -25 26 0 6 -7 24 -14 40 -8 15 -13 31 -10 36 3 5 0 15 -6 23
-8 9 -10 28 -6 50 6 28 4 35 -9 35 -14 0 -15 -10 -10 -67z"/>
<path d="M2696 1131 c-10 -11 -16 -26 -14 -33 3 -8 11 -2 23 15 21 33 15 45
-9 18z"/>
<path d="M2410 1131 c0 -8 -6 -11 -16 -7 -8 3 -12 2 -9 -4 6 -9 -17 -15 -40
-10 -5 1 -7 -2 -3 -5 4 -4 -3 -16 -15 -26 -14 -11 -17 -18 -8 -19 7 0 26 10
41 23 15 12 36 27 46 33 11 7 16 15 12 19 -5 5 -8 3 -8 -4z"/>
<path d="M2613 1125 c-22 -16 -34 -43 -13 -30 6 3 10 -1 10 -10 0 -15 1 -15
16 -1 8 9 14 25 12 36 -3 19 -4 20 -25 5z"/>
<path d="M2527 1109 c-9 -6 -17 -17 -17 -25 0 -8 5 -12 10 -9 6 3 10 -4 11
-17 1 -15 4 -9 10 16 11 45 10 48 -14 35z"/>
<path d="M135 1101 c-37 -9 -69 -26 -101 -54 -29 -25 -30 -33 -4 -40 14 -4 25
4 40 28 21 34 51 52 70 40 9 -6 70 20 70 30 0 7 -39 4 -75 -4z"/>
<path d="M337 1079 c-10 -6 -24 -8 -31 -6 -18 7 -61 -39 -80 -85 -18 -42 -21
-94 -6 -103 6 -4 10 7 10 25 0 40 23 90 56 121 31 29 99 40 137 22 27 -14 37
-4 15 15 -20 16 -81 23 -101 11z"/>
<path d="M1380 1067 c0 -7 7 -22 15 -33 12 -19 12 -24 0 -40 -16 -22 -20 -54
-5 -54 5 0 16 12 25 28 l16 27 -5 -40 c-3 -22 -3 -34 0 -27 9 20 23 14 17 -8
-3 -11 -11 -20 -17 -20 -7 0 -11 -16 -9 -42 1 -24 -1 -37 -6 -30 -4 7 -18 10
-32 8 -13 -3 -27 -5 -31 -5 -20 -2 -5 -20 20 -23 l27 -3 3 -92 c4 -118 22
-123 22 -6 0 65 4 91 16 104 17 19 22 110 9 168 -13 60 -65 130 -65 88z"/>
<path d="M2466 1069 c5 -9 -1 -10 -19 -5 -23 5 -28 2 -33 -19 -8 -33 1 -42 23
-23 10 8 26 18 36 21 21 8 23 37 1 37 -9 0 -12 -5 -8 -11z"/>
<path d="M1187 1036 c-21 -16 -22 -45 -1 -82 l16 -29 -6 33 c-3 17 -1 44 5 58
12 32 9 36 -14 20z"/>
<path d="M2274 1040 c-12 -5 -25 -13 -29 -19 -3 -6 -21 -11 -38 -11 -25 -1
-29 -3 -16 -10 19 -11 78 9 99 34 14 18 13 18 -16 6z"/>
<path d="M1015 1030 c-3 -5 -11 -7 -17 -4 -6 4 -9 1 -6 -7 6 -19 54 -21 69 -3
8 10 8 14 0 14 -6 0 -11 -6 -11 -12 -1 -8 -6 -6 -14 5 -9 12 -16 14 -21 7z"/>
<path d="M1310 1019 c0 -13 -6 -36 -14 -50 -11 -21 -11 -26 0 -26 14 0 32 83
20 94 -3 4 -6 -5 -6 -18z"/>
<path d="M380 995 c-10 -12 -7 -15 14 -21 13 -3 29 -3 35 0 5 3 11 0 14 -6 3
-9 9 -7 20 7 8 11 13 23 11 27 -9 14 -81 9 -94 -7z"/>
<path d="M2275 920 c2 -11 11 -27 19 -36 19 -18 19 -16 5 25 -12 34 -30 43
-24 11z"/>
<path d="M497 901 c4 -15 -2 -21 -26 -26 -17 -3 -33 -10 -36 -15 -7 -12 17 -6
115 27 10 3 4 9 -19 19 -42 18 -40 18 -34 -5z"/>
<path d="M2136 885 c-19 -14 -18 -15 16 -15 20 0 39 -4 42 -9 3 -5 16 -11 28
-14 13 -2 32 -8 43 -12 16 -6 14 -2 -7 19 -16 15 -28 31 -28 36 0 15 -73 11
-94 -5z"/>
<path d="M1206 849 c-13 -16 -20 -19 -26 -9 -5 8 -15 -8 -29 -45 -22 -57 -21
-75 4 -75 9 0 15 14 17 42 3 39 6 43 36 49 41 8 43 10 35 37 -7 27 -14 28 -37
1z"/>
<path d="M2020 863 c-8 -3 -24 -13 -35 -23 -11 -10 -27 -20 -35 -23 -9 -3 -6
-6 9 -6 13 -1 39 13 58 29 33 29 34 34 3 23z"/>
<path d="M2089 848 c0 -2 -2 -11 -4 -21 -3 -17 -2 -17 14 -3 20 18 47 21 56 6
3 -5 16 -15 28 -21 18 -8 16 -5 -6 15 -17 16 -40 26 -58 26 -16 0 -29 -1 -30
-2z"/>
<path d="M393 828 c-6 -7 -13 -21 -16 -31 -4 -10 -11 -15 -17 -12 -5 3 -10 1
-10 -4 0 -6 0 -14 0 -18 0 -23 23 -2 40 35 19 43 20 52 3 30z"/>
<path d="M887 834 c-3 -4 -45 -6 -93 -5 -48 0 -84 -2 -80 -6 4 -4 21 -6 39 -5
53 4 58 -5 58 -106 0 -98 11 -118 29 -51 6 22 14 47 17 55 3 9 -1 14 -12 14
-13 0 -16 8 -13 43 3 41 4 42 41 45 20 2 37 7 37 13 0 10 -14 12 -23 3z"/>
<path d="M1287 833 c-22 -6 -12 -23 14 -23 10 0 19 7 19 15 0 15 -2 16 -33 8z"/>
<path d="M758 792 l-28 -3 0 -120 0 -119 50 0 c47 0 50 2 50 25 0 18 -5 25
-20 25 -18 0 -20 8 -22 98 l-3 97 -27 -3z"/>
<path d="M850 773 c0 -16 6 -23 20 -23 11 0 20 -1 20 -2 0 -2 -11 -39 -25 -83
-36 -116 -36 -115 35 -115 57 0 60 1 60 25 0 20 -5 25 -24 25 l-25 0 25 72
c13 39 24 83 24 97 0 25 -3 26 -55 26 -50 0 -55 -2 -55 -22z"/>
<path d="M995 720 c-35 -105 -34 -120 10 -120 31 0 35 -3 35 -25 0 -21 5 -25
30 -25 25 0 30 4 30 25 0 14 5 25 10 25 6 0 10 9 10 20 0 11 -4 20 -10 20 -6
0 -10 33 -10 78 l0 77 -40 0 -40 0 -25 -75z m45 -30 c0 -35 -4 -50 -14 -50
-10 0 -11 10 -3 50 5 28 11 50 13 50 2 0 4 -22 4 -50z"/>
<path d="M1243 793 l-53 -4 0 -120 0 -120 32 3 c32 3 32 3 29 51 -2 42 0 49
18 54 27 7 27 39 0 46 -28 7 -21 41 9 45 16 3 22 10 22 28 0 13 -1 23 -2 22
-2 -1 -27 -3 -55 -5z"/>
<path d="M1488 792 l-48 -3 0 -120 0 -119 55 0 c52 0 55 1 55 25 0 20 -5 25
-26 25 -22 0 -25 4 -22 28 2 19 8 27 21 26 12 -1 17 5 17 22 0 17 -6 24 -20
24 -15 0 -20 7 -20 25 0 20 5 25 23 25 17 0 23 5 22 20 -2 25 -2 26 -57 22z"/>
<path d="M1567 756 c9 -52 9 -88 -1 -153 l-8 -53 30 0 c28 0 30 2 34 45 2 25
-1 45 -6 45 -5 0 -6 34 -2 78 l7 77 -31 1 -31 1 8 -41z"/>
<path d="M1638 760 c0 -19 0 -42 1 -50 1 -8 3 -46 4 -85 l2 -70 34 -3 c29 -3
33 -1 26 15 -19 49 -28 133 -18 180 l10 50 -29 -1 c-25 -1 -28 -5 -30 -36z"/>
<path d="M2100 790 c8 -5 11 -10 7 -10 -5 0 12 -26 36 -57 25 -32 53 -74 62
-93 26 -52 78 -131 83 -126 2 3 -2 17 -11 33 -8 15 -27 53 -42 83 -16 30 -48
78 -72 107 -23 30 -43 58 -43 63 0 6 -8 10 -17 10 -15 0 -16 -2 -3 -10z"/>
<path d="M1320 671 l0 -120 50 1 c46 0 50 2 50 24 0 17 -6 24 -20 24 -19 0
-20 7 -20 95 l0 95 -30 0 -30 0 0 -119z"/>
<path d="M1873 779 c-6 -6 -17 -11 -26 -13 -8 -1 -40 -24 -71 -50 -32 -27 -60
-45 -64 -41 -4 4 -1 10 6 12 17 6 15 23 -3 23 -13 0 -15 -9 -9 -52 8 -60 22
-106 23 -75 1 29 37 90 70 120 17 15 31 32 31 39 0 6 3 9 6 5 5 -4 84 30 84
37 0 7 -39 3 -47 -5z"/>
<path d="M2429 778 c-7 -29 -9 -97 -2 -101 4 -3 9 19 10 49 0 30 -1 54 -3 54
-2 0 -4 -1 -5 -2z"/>
<path d="M1933 745 c-18 -20 -16 -22 11 -22 18 0 22 4 19 18 -6 22 -14 23 -30
4z"/>
<path d="M646 703 c-3 -21 -12 -50 -20 -65 -15 -29 -7 -38 13 -14 12 14 28
116 19 116 -3 0 -8 -17 -12 -37z"/>
<path d="M1852 700 c-17 -11 -36 -28 -41 -39 -13 -24 -14 -54 -2 -47 5 4 11 0
14 -6 2 -7 7 5 11 26 9 48 29 70 56 61 11 -3 20 -2 20 3 0 19 -28 20 -58 2z"/>
<path d="M671 643 c-2 -40 -22 -68 -66 -96 -48 -31 -74 -57 -56 -57 6 0 11 4
11 10 0 5 22 21 48 34 54 27 76 59 69 102 -3 21 -4 23 -6 7z"/>
<path d="M1153 639 c-7 -7 -13 -18 -13 -24 0 -7 -7 -26 -16 -43 -11 -24 -22
-32 -42 -32 -15 0 -34 -5 -42 -11 -12 -8 -10 -9 8 -4 26 8 30 -10 5 -24 -10
-5 -34 -34 -53 -65 -32 -51 -50 -68 -50 -48 0 5 -16 34 -35 66 -19 32 -33 61
-31 65 3 4 -3 7 -13 7 -15 0 -17 -8 -13 -51 3 -41 -1 -61 -21 -101 -30 -57
-149 -194 -222 -254 -75 -62 -163 -97 -215 -85 -26 6 -30 4 -30 -14 0 -17 6
-21 36 -21 21 0 33 4 29 10 -4 7 2 7 19 0 16 -6 27 -6 31 1 4 5 11 6 17 3 6
-4 8 -2 5 3 -4 6 12 16 37 23 80 22 263 220 322 347 22 49 30 52 46 18 6 -14
15 -25 20 -25 5 0 6 -5 2 -12 -5 -7 -2 -9 9 -5 19 7 23 -3 32 -76 4 -34 11
-54 17 -51 6 4 8 28 4 60 -5 46 -4 54 10 54 12 0 15 6 10 25 -5 18 -2 27 9 31
8 4 15 11 15 18 1 15 36 56 49 56 6 0 11 7 11 15 0 14 29 35 49 35 5 0 17 -7
26 -16 11 -11 19 -13 28 -6 7 6 33 13 59 17 30 5 45 11 41 18 -4 6 -6 31 -4
55 1 32 -1 43 -11 40 -7 -3 -13 -22 -14 -44 -1 -54 -9 -64 -48 -64 -43 0 -54
14 -58 73 -2 39 -5 46 -15 36z"/>
<path d="M273 604 c-23 -26 -43 -83 -43 -125 0 -13 -2 -40 -3 -59 -3 -37 12
-100 23 -100 4 0 10 47 13 105 4 72 12 118 26 150 23 51 15 64 -16 29z"/>
<path d="M1768 583 c-23 -50 -22 -60 1 -73 29 -15 30 -13 21 21 -10 33 -5 53
10 44 5 -3 11 -1 15 5 3 5 -1 10 -9 10 -8 0 -16 7 -18 16 -2 11 -10 2 -20 -23z"/>
<path d="M558 573 c-32 -34 -108 -143 -148 -212 -8 -14 -18 -28 -21 -31 -3 -3
-32 -44 -63 -93 -32 -48 -61 -85 -65 -82 -5 2 -22 -13 -40 -35 -28 -36 -37
-40 -76 -40 -24 0 -67 -5 -95 -12 -46 -11 -51 -14 -48 -37 3 -26 4 -26 100
-29 88 -2 99 -1 118 18 27 27 21 37 -6 12 -28 -27 -204 -30 -204 -4 0 14 10
17 55 16 31 0 50 3 43 7 -27 17 3 20 31 3 l31 -18 33 32 c34 33 57 41 57 20 0
-6 3 -8 6 -5 4 4 2 12 -4 19 -15 18 10 50 32 42 18 -7 21 7 5 23 -8 8 -6 13 7
17 11 3 29 21 41 39 45 67 90 128 138 189 27 35 41 56 31 48 -28 -22 -18 0 29
65 22 31 51 58 63 62 18 4 21 8 10 14 -20 13 -21 12 -60 -28z"/>
<path d="M2410 565 c4 -20 15 -46 24 -60 9 -13 18 -37 19 -52 2 -16 11 -44 20
-63 20 -41 19 -127 -1 -122 -10 2 -10 -2 -2 -18 14 -26 54 -28 46 -2 -2 9 -7
44 -11 77 -9 89 -31 156 -67 204 -10 13 -18 34 -18 47 0 13 -4 24 -9 24 -5 0
-5 -15 -1 -35z"/>
<path d="M980 561 c0 -20 -18 -31 -53 -31 -17 0 -19 -2 -7 -9 8 -6 18 -7 22
-5 4 3 8 1 8 -4 0 -5 9 -8 20 -7 25 2 54 40 46 60 -8 22 -36 18 -36 -4z"/>
<path d="M1331 530 c-5 -3 -10 -17 -13 -32 l-5 -27 31 26 c27 22 31 24 34 9 2
-9 1 -25 -3 -34 -4 -9 -8 -35 -10 -57 -1 -23 -14 -64 -28 -92 -14 -28 -23 -53
-20 -57 4 -3 2 -6 -4 -6 -6 0 -13 -9 -16 -19 -3 -14 -1 -18 10 -14 12 5 14 0
9 -23 -3 -16 -8 -49 -11 -73 -3 -24 -9 -49 -15 -55 -5 -7 -5 -18 -1 -25 12
-19 40 58 50 138 5 36 23 119 40 185 41 157 41 165 -5 163 -19 -1 -39 -4 -43
-7z"/>
<path d="M1615 500 c8 -16 15 -44 15 -62 1 -28 2 -30 11 -15 6 9 7 27 3 40
-10 27 -11 33 -13 52 0 8 -8 15 -16 15 -14 0 -14 -3 0 -30z"/>
<path d="M1796 460 c8 -43 31 -90 44 -90 14 0 13 6 -7 43 -9 18 -17 34 -18 37
0 3 -6 14 -13 25 -11 18 -12 16 -6 -15z"/>
<path d="M2266 407 c3 -10 -3 -17 -20 -21 -14 -3 -26 -11 -26 -16 0 -15 37
-12 43 3 4 10 6 10 6 0 1 -7 6 -13 12 -13 14 0 7 52 -9 58 -7 2 -10 -2 -6 -11z"/>
<path d="M1663 377 c20 -30 37 -33 37 -5 0 18 -6 23 -26 24 -23 2 -24 0 -11
-19z"/>
<path d="M1913 337 c17 -16 35 -23 47 -20 27 7 25 19 -2 26 -13 3 -34 9 -48
12 l-25 7 28 -25z"/>
<path d="M2080 335 c-25 -7 -55 -11 -67 -8 -13 3 -23 0 -23 -6 0 -14 89 -15
124 -1 14 5 26 14 26 20 0 12 0 12 -60 -5z"/>
<path d="M2290 311 c0 -17 5 -33 10 -36 6 -4 10 8 10 29 0 20 -4 36 -10 36 -5
0 -10 -13 -10 -29z"/>
<path d="M1756 285 c-3 -8 -11 -13 -18 -10 -28 10 -69 -48 -67 -93 0 -9 6 1
13 23 9 33 17 41 40 43 25 3 26 2 17 -17 -14 -25 -14 -44 -1 -36 6 3 10 15 10
26 0 10 5 19 11 19 6 0 8 7 5 15 -3 9 1 18 9 21 19 8 20 24 1 24 -8 0 -16 -7
-20 -15z"/>
<path d="M242 225 c1 -51 9 -63 29 -38 10 12 10 14 2 9 -10 -5 -13 2 -13 28 0
19 -4 38 -10 41 -5 3 -9 -13 -8 -40z"/>
<path d="M2416 262 c-4 -7 -12 -10 -17 -7 -5 4 -13 -5 -18 -18 -6 -14 -20 -35
-32 -46 -13 -12 -18 -21 -12 -21 6 0 23 13 36 30 14 16 32 28 39 25 7 -3 19 4
26 16 8 12 9 18 4 15 -6 -3 -12 -1 -14 6 -3 9 -6 9 -12 0z"/>
<path d="M1856 223 c-20 -13 -36 -28 -36 -33 0 -14 12 -12 35 3 12 8 45 12 80
12 33 -1 74 4 90 11 l30 13 -45 1 c-25 0 -62 4 -82 9 -31 7 -42 5 -72 -16z"/>
<path d="M2297 201 c-21 -36 -23 -62 -3 -41 12 13 31 70 23 70 -1 0 -10 -13
-20 -29z"/>
<path d="M505 200 c-3 -5 -3 -10 1 -10 3 0 -11 -15 -32 -34 -21 -19 -36 -37
-33 -40 9 -9 76 52 82 74 5 21 -7 28 -18 10z"/>
<path d="M1924 135 c-10 -8 -29 -15 -41 -15 -13 0 -23 -4 -23 -10 0 -5 -9 -19
-21 -31 -29 -29 -19 -33 13 -6 15 13 43 32 62 42 20 11 36 23 36 27 0 11 -3
10 -26 -7z"/>
<path d="M290 110 c0 -6 9 -18 20 -27 11 -10 20 -23 20 -30 0 -17 26 -17 33 1
7 17 -12 36 -36 36 -10 0 -16 4 -13 9 3 5 -1 11 -9 15 -8 3 -15 1 -15 -4z"/>
<path d="M965 81 c-2 -4 0 -13 4 -20 7 -10 13 -10 30 -2 11 7 21 13 21 15 0 7
-51 13 -55 7z"/>
<path d="M1047 3 c18 -2 50 -2 70 0 21 2 7 4 -32 4 -38 0 -55 -2 -38 -4z"/>
</g>
</svg>
