<?xml version="1.0" standalone="no"?>
<!DOCTYPE svg PUBLIC "-//W3C//DTD SVG 20010904//EN"
 "http://www.w3.org/TR/2001/REC-SVG-20010904/DTD/svg10.dtd">
<svg version="1.0" xmlns="http://www.w3.org/2000/svg"
 width="100%" height="100%" viewBox="0 0 275.000000 275.000000"
 preserveAspectRatio="xMidYMid meet">
 <defs>
    <radialGradient id="myGradient" cx="50%" cy="50%" r="50%" fx="50%" fy="50%">
      <stop offset="0%" stop-color="#4e3030" />
      <stop offset="100%" stop-color="#20303e" />
    </radialGradient>
  </defs>
<circle cx="140" cy="140" r="130" fill="#333333"/>
<circle cx="140" cy="140" r="128" fill="url(#myGradient)" />
<g transform="translate(0.000000,275.000000) scale(0.100000,-0.100000)"
fill="#FFFFFF" stroke="#FFFFFF">
<path d="M1355 2277 c-3 -7 -5 -49 -3 -93 3 -71 5 -79 23 -79 19 0 20 7 20 90
0 78 -2 90 -18 93 -9 2 -19 -3 -22 -11z m35 -83 c0 -64 -3 -85 -12 -82 -14 5
-24 105 -14 144 13 52 26 21 26 -62z"/>
<path d="M1107 2226 c-3 -8 11 -48 30 -90 26 -54 42 -76 55 -76 26 0 23 17
-17 104 -34 72 -56 93 -68 62z m66 -82 c29 -55 34 -78 16 -72 -6 2 -10 7 -9
12 1 5 -3 12 -8 15 -10 7 -52 98 -52 113 0 16 24 -15 53 -68z"/>
<path d="M1644 2183 c-10 -16 -27 -44 -40 -64 -31 -50 -34 -74 -9 -74 13 0 32
22 62 73 24 40 41 78 38 83 -11 17 -35 9 -51 -18z m36 6 c0 -18 -43 -89 -50
-84 -4 3 -7 -3 -6 -12 0 -10 -7 -19 -16 -21 -16 -3 -16 1 4 37 12 22 25 38 30
35 5 -3 8 0 7 7 -3 19 11 49 22 49 5 0 9 -5 9 -11z"/>
<path d="M901 2063 c0 -24 125 -127 144 -119 27 10 15 30 -49 84 -65 54 -96
65 -95 35z m87 -44 c34 -27 60 -55 56 -60 -8 -13 -50 15 -46 31 1 6 -1 9 -6 6
-10 -6 -82 51 -82 65 0 17 15 9 78 -42z"/>
<path d="M1788 1993 c-65 -45 -89 -83 -53 -83 22 0 157 100 152 114 -8 23 -34
15 -99 -31z m82 25 c-1 -12 -118 -98 -133 -98 -20 0 0 23 56 64 66 48 77 53
77 34z"/>
<path d="M1300 1927 c-73 -46 -170 -175 -170 -225 0 -10 15 -40 32 -68 28 -42
33 -58 32 -109 -1 -134 -58 -267 -158 -372 -33 -36 -65 -71 -69 -79 -9 -15
-37 -19 -37 -5 0 11 -63 49 -95 57 -14 3 -25 10 -25 14 0 5 -12 23 -27 41 -17
20 -28 46 -30 70 -4 59 -46 141 -92 181 -54 46 -115 63 -222 62 -181 -1 -273
-90 -270 -260 0 -36 3 -77 7 -92 19 -92 113 -305 162 -370 65 -86 262 -187
462 -237 36 -9 109 -32 164 -51 54 -19 110 -34 125 -34 43 0 70 27 110 109 20
42 59 105 85 140 26 36 52 84 59 108 8 30 16 43 29 43 14 0 18 -8 18 -32 0
-44 29 -156 50 -193 10 -17 21 -55 25 -83 9 -64 22 -79 81 -88 84 -12 371 58
489 119 50 27 225 164 225 177 0 6 7 10 15 10 8 0 24 9 35 20 11 11 24 20 30
20 6 0 10 6 10 14 0 8 7 16 15 20 8 3 15 13 15 21 0 9 5 13 10 10 6 -3 10 0
10 8 0 8 11 25 25 38 13 13 25 30 25 37 0 6 4 12 9 12 5 0 13 12 19 28 5 15
19 38 31 51 11 13 18 28 15 32 -3 5 -1 9 5 9 6 0 22 38 36 84 28 92 25 148
-11 187 -9 10 -13 19 -8 19 4 0 -11 18 -34 39 -38 36 -146 98 -155 89 -2 -1
-10 2 -18 8 -41 33 -239 61 -239 35 0 -6 -9 -11 -19 -11 -11 0 -33 -12 -50
-26 -36 -30 -85 -109 -77 -123 3 -5 2 -11 -4 -13 -6 -2 -13 -28 -17 -58 -3
-30 -12 -58 -19 -63 -7 -4 -15 -21 -19 -37 -5 -22 -16 -34 -39 -44 -18 -7 -52
-32 -76 -55 -41 -39 -70 -52 -70 -31 0 5 -13 25 -30 43 -55 63 -130 250 -130
325 0 13 14 45 31 70 l31 47 -11 82 c-8 55 -8 89 -2 101 7 14 5 26 -10 48 -10
16 -19 37 -19 47 0 11 -13 24 -32 32 -18 7 -39 23 -46 35 -12 20 -14 20 -42 3
-29 -17 -30 -16 -54 10 -30 33 -50 34 -96 4z m88 -25 c15 -22 14 -23 -11 -17
-19 5 -28 2 -36 -13 -17 -32 -13 -50 19 -84 42 -43 37 -98 -9 -98 -11 0 -11 4
4 20 21 23 13 54 -12 46 -15 -4 -21 5 -36 50 -15 49 -16 58 -2 83 24 47 57 52
83 13z m92 -16 c0 -14 -29 -31 -38 -21 -6 6 18 35 29 35 5 0 9 -6 9 -14z
m-203 -20 c-8 -19 41 -164 65 -195 24 -31 23 -68 -1 -81 -23 -12 -42 7 -21 20
20 12 7 45 -18 43 -23 -3 -24 0 -52 125 -10 45 -10 56 4 77 18 27 31 34 23 11z
m99 -11 c-6 -17 21 -48 35 -40 5 4 9 13 9 21 0 10 8 14 23 12 16 -2 21 -9 19
-23 -9 -48 -43 -58 -86 -24 -25 19 -34 48 -19 62 12 13 25 7 19 -8z m159 -8
c20 -15 16 -54 -8 -79 -7 -7 -19 -27 -26 -45 -7 -18 -21 -35 -31 -38 -18 -6
-55 -53 -47 -61 7 -7 97 83 97 98 1 22 40 62 50 52 11 -11 -17 -94 -30 -94 -4
0 -10 -13 -13 -29 -4 -17 -14 -32 -26 -36 -29 -9 -71 -45 -71 -61 0 -10 6 -8
20 6 12 12 32 25 46 30 16 6 32 25 42 50 9 22 20 40 25 40 14 0 7 -48 -11 -71
-11 -13 -22 -37 -26 -52 -3 -15 -18 -37 -31 -49 -14 -12 -25 -25 -25 -30 0
-19 64 51 84 92 20 43 21 43 24 18 4 -33 -37 -96 -101 -155 -42 -39 -58 -47
-111 -55 -14 -2 -24 -22 -41 -89 -26 -100 -41 -214 -27 -205 5 3 12 28 15 56
7 61 55 217 69 226 18 11 19 -4 3 -72 -9 -38 -25 -145 -35 -239 -22 -205 -38
-265 -94 -347 -24 -35 -55 -86 -69 -114 -57 -112 -92 -132 -165 -95 -20 10
-77 33 -127 51 -81 30 -131 54 -145 70 -16 19 -79 60 -91 60 -9 0 -7 -5 6 -12
11 -6 29 -20 40 -31 11 -10 36 -27 55 -37 79 -43 -57 -9 -185 45 -40 17 -95
61 -95 77 0 11 71 112 82 116 4 2 8 10 8 17 0 8 6 18 13 22 8 4 22 22 32 40
10 18 22 30 27 27 4 -3 8 1 8 8 0 16 57 68 65 60 3 -3 5 0 5 6 0 19 42 62 53
55 6 -3 7 -1 3 5 -21 35 103 -9 139 -48 16 -18 16 -22 -14 -81 -17 -34 -31
-77 -31 -95 0 -18 -4 -36 -10 -39 -16 -10 -12 -88 6 -113 8 -12 22 -22 30 -22
10 0 9 5 -6 20 -20 20 -25 45 -14 74 5 13 9 14 20 5 9 -8 14 -8 14 -1 0 6 -5
14 -10 17 -20 13 -10 86 21 148 33 65 63 105 149 197 76 82 113 169 155 364 6
26 9 28 42 23 49 -8 113 39 113 84 0 16 7 46 15 66 8 19 15 44 15 54 0 10 12
24 26 31 25 12 46 42 58 81 6 21 16 21 41 4z m-282 -149 c41 -124 42 -128 27
-128 -5 0 -10 5 -10 11 0 6 -18 41 -40 79 -45 78 -55 150 -20 150 4 0 23 -51
43 -112z m3 -145 c-9 -10 -32 14 -71 78 -28 46 -35 66 -30 87 6 24 11 18 57
-66 27 -51 48 -96 44 -99z m1012 -43 c2 -6 8 -8 12 -5 5 3 17 2 27 -3 10 -5
47 -23 83 -39 36 -17 80 -43 97 -57 41 -34 73 -102 73 -153 0 -45 -33 -148
-55 -173 -8 -9 -13 -19 -10 -22 3 -3 -4 -13 -15 -23 -11 -10 -20 -26 -20 -35
0 -20 -24 -43 -33 -33 -4 3 -7 -3 -7 -15 0 -12 -8 -30 -18 -40 -9 -9 -28 -32
-41 -50 l-23 -33 -46 81 c-60 103 -145 202 -254 297 -92 79 -100 95 -73 143 8
14 14 35 15 47 0 11 13 32 29 46 17 14 28 27 25 29 -2 3 2 11 11 18 8 7 15 10
15 6 0 -3 15 4 33 15 27 17 42 19 102 14 39 -3 72 -10 73 -15z m-1714 -44
c103 -31 164 -103 181 -211 l6 -41 -140 -153 c-77 -84 -162 -181 -188 -216
-26 -35 -52 -63 -58 -61 -13 4 -111 200 -134 271 -55 165 -49 275 18 347 64
70 203 98 315 64z m994 -124 c15 -75 67 -180 130 -266 58 -79 71 -129 53 -202
-15 -59 -7 -68 14 -18 10 24 15 61 14 94 -4 66 5 84 72 144 62 56 92 66 121
40 25 -23 135 -163 174 -223 l28 -44 -37 -32 c-20 -17 -56 -38 -79 -45 -35
-11 -39 -15 -20 -18 26 -4 104 39 126 69 14 21 15 20 41 -21 14 -23 28 -47 31
-54 6 -14 -58 -76 -128 -124 -53 -37 -62 -27 -21 26 14 19 20 33 12 30 -8 -2
-26 -26 -41 -53 -24 -44 -34 -52 -95 -76 -192 -77 -369 -106 -399 -65 -8 11
-14 28 -14 39 0 10 -11 32 -24 48 -45 53 -112 273 -123 405 -6 79 10 240 33
321 13 47 18 53 57 66 23 9 47 16 52 16 6 1 16 -25 23 -57z m483 -159 c44 -36
79 -69 79 -72 0 -3 17 -24 38 -46 74 -77 152 -209 152 -256 0 -17 -40 -49 -40
-32 0 4 -4 2 -9 -5 -6 -10 -16 0 -36 35 -76 130 -184 273 -263 348 -41 39 -43
43 -31 68 7 15 16 27 22 27 5 0 45 -30 88 -67z m-1231 -53 c0 -3 -13 -13 -29
-23 -57 -34 -279 -298 -314 -374 -13 -29 -25 -28 -60 1 l-28 23 45 59 c59 78
137 167 249 282 l92 94 22 -29 c13 -15 23 -30 23 -33z"/>
<path d="M1150 954 c0 -26 -52 -128 -78 -152 -29 -28 -21 -43 9 -16 20 18 89
151 89 173 0 6 -4 11 -10 11 -5 0 -10 -7 -10 -16z"/>
<path d="M680 810 c45 -9 157 -13 149 -6 -2 2 -47 6 -99 9 -67 4 -82 3 -50 -3z"/>
<path d="M1210 740 c-12 -25 -26 -47 -29 -50 -4 -3 -15 -18 -25 -35 -42 -69
-62 -82 -116 -77 -57 4 -66 -9 -20 -33 54 -28 100 -10 126 48 10 23 25 48 32
56 21 21 64 111 59 124 -2 7 -14 -8 -27 -33z"/>
<path d="M1521 1338 c0 -7 9 -31 20 -53 15 -30 18 -34 14 -13 -10 54 -37 104
-34 66z"/>
<path d="M1560 961 c0 -6 4 -11 9 -11 5 0 23 -21 39 -47 35 -56 72 -97 80 -89
3 4 -5 17 -17 30 -13 14 -37 46 -55 72 -30 46 -56 67 -56 45z"/>
<path d="M785 1840 c-11 -18 6 -29 84 -51 75 -21 101 -20 101 5 0 25 -171 68
-185 46z m80 -11 c25 -6 42 -15 39 -20 -3 -5 2 -6 10 -3 22 8 52 -4 40 -16
-11 -11 -94 8 -94 21 0 5 -7 6 -15 3 -8 -4 -21 -1 -29 5 -7 6 -16 8 -19 4 -4
-3 -7 -1 -7 5 0 15 19 15 75 1z"/>
<path d="M1850 1786 c-37 -8 -56 -17 -58 -28 -2 -9 1 -19 6 -22 14 -9 176 24
184 37 18 29 -32 34 -132 13z m120 -5 c0 -9 -70 -26 -130 -33 -46 -5 -31 17
16 24 25 4 49 9 52 12 9 10 62 7 62 -3z"/>
<path d="M835 1606 c-42 -8 -61 -16 -63 -28 -5 -27 11 -29 102 -12 72 14 86
19 86 35 0 22 -30 24 -125 5z m115 -5 c0 -9 -12 -13 -100 -28 -59 -10 -60 -10
-60 2 -1 5 23 15 52 21 69 15 108 16 108 5z"/>
<path d="M1791 1581 c-28 -18 -1 -38 79 -59 84 -23 103 -22 98 5 -2 10 -33 24
-83 39 -44 13 -80 23 -80 23 0 1 -6 -3 -14 -8z m138 -40 c14 -4 27 -13 29 -21
3 -8 -1 -11 -9 -8 -8 3 -45 13 -84 23 -80 21 -79 20 -71 34 4 6 25 4 59 -6 28
-9 63 -19 76 -22z"/>
</g>
</svg>
