<?xml version="1.0" standalone="no"?>
<!DOCTYPE svg PUBLIC "-//W3C//DTD SVG 20010904//EN"
 "http://www.w3.org/TR/2001/REC-SVG-20010904/DTD/svg10.dtd">
<svg version="1.0" xmlns="http://www.w3.org/2000/svg"
 width="200.000000pt" height="200.000000pt" viewBox="0 0 200.000000 200.000000"
 preserveAspectRatio="xMidYMid meet">
<metadata>
Created by potrace 1.10, written by Peter Selinger 2001-2011
</metadata>
<g transform="translate(0.000000,200.000000) scale(0.100000,-0.100000)"
fill="#000000" stroke="none">
<path d="M212 1982 c4 -15 0 -17 -29 -14 -45 6 -91 -15 -108 -49 -21 -39 -21
-229 0 -268 15 -31 51 -49 105 -53 30 -3 35 -7 43 -38 13 -59 204 -248 255
-254 36 -4 79 -40 62 -51 -12 -7 -59 12 -71 28 -10 14 -109 57 -109 47 0 -5
13 -16 29 -25 17 -8 32 -19 36 -24 3 -6 -4 -42 -14 -82 -11 -39 -23 -105 -27
-145 -4 -41 -10 -74 -13 -74 -4 0 -41 -20 -84 -44 l-77 -44 0 58 c0 113 36
264 105 445 6 14 5 17 -3 10 -34 -31 -112 -319 -112 -412 0 -55 -10 -99 -19
-86 -8 12 -101 75 -138 94 -28 15 -28 25 -3 123 45 171 119 355 159 395 l21
21 -53 15 c-72 20 -167 34 -167 23 0 -4 5 -8 11 -8 6 0 8 -7 5 -15 -17 -42
-16 -47 3 -17 16 25 26 31 43 28 13 -3 47 -10 76 -16 l52 -12 -29 -52 c-47
-83 -136 -337 -155 -444 -5 -31 -3 -34 89 -95 111 -75 143 -111 185 -215 59
-146 85 -195 122 -227 59 -50 130 -84 191 -91 50 -6 57 -4 63 12 11 36 21 49
40 49 27 0 30 -39 4 -65 -11 -11 -26 -18 -32 -14 -6 4 -38 6 -70 5 -78 -3
-149 23 -209 77 -26 23 -49 39 -51 35 -3 -5 -4 -3 -3 2 2 6 -27 71 -64 145
l-66 135 -85 63 c-103 77 -120 87 -120 70 0 -7 28 -31 61 -53 119 -77 180
-157 200 -262 10 -49 -4 -81 -56 -139 -20 -21 -33 -44 -31 -50 2 -6 -3 -22
-11 -34 -11 -15 -16 -44 -16 -84 1 -84 -15 -110 -87 -143 -33 -15 -60 -31 -60
-36 0 -13 53 4 89 29 19 13 36 22 38 21 1 -2 -11 -41 -27 -87 -17 -45 -28 -85
-25 -88 5 -6 19 29 47 118 11 36 26 77 34 92 8 15 14 55 14 96 0 50 4 73 15
82 8 7 15 23 15 36 0 13 9 28 20 34 32 17 73 96 66 128 l-6 27 14 -25 c15 -27
47 -139 45 -161 0 -8 -11 18 -24 56 -13 39 -23 62 -24 53 -2 -29 50 -161 82
-207 29 -42 29 -45 13 -71 -19 -33 -20 -59 -5 -111 10 -32 9 -40 -5 -54 -27
-27 -66 -81 -66 -91 0 -5 8 0 16 11 14 19 16 19 28 3 20 -27 31 -22 13 5 -14
22 -14 26 9 53 l24 29 18 -21 c9 -11 30 -29 45 -38 15 -10 27 -26 27 -35 0
-14 2 -14 10 -1 7 12 12 12 22 2 6 -6 18 -12 26 -12 24 0 -4 26 -51 49 -40 20
-86 73 -91 105 -1 8 -5 18 -8 22 -6 6 -1 55 7 62 2 2 25 -14 52 -35 59 -49
156 -91 203 -88 19 1 44 -2 55 -6 11 -3 74 -10 140 -13 65 -4 133 -13 150 -21
21 -8 37 -9 49 -3 9 5 30 7 45 3 17 -3 32 -2 36 5 10 16 145 11 152 -7 3 -7
21 -20 40 -28 19 -8 32 -19 29 -24 -6 -10 26 -21 63 -21 20 0 13 8 -37 40 -34
22 -61 46 -59 53 1 6 -4 11 -10 10 -14 -3 -49 44 -40 53 3 3 -3 26 -14 51 -18
42 -18 45 -2 38 39 -16 63 -17 78 -1 15 15 11 16 -49 16 -50 0 -66 3 -66 14 0
8 -13 19 -29 24 -22 8 -41 31 -76 92 -32 55 -51 78 -59 72 -18 -14 -46 -22
-46 -13 0 4 10 13 23 18 31 14 56 115 35 140 -11 14 -11 15 2 11 8 -3 21 2 28
11 12 14 13 12 7 -11 -3 -16 -1 -28 5 -28 5 0 10 12 10 26 0 44 22 105 43 115
17 10 18 8 12 -21 -16 -74 -10 -97 41 -147 26 -27 40 -37 31 -23 -22 32 -24
37 -32 83 -4 23 -11 37 -21 37 -11 0 -13 9 -8 43 8 51 21 67 60 70 28 2 29 1
34 -53 3 -31 8 -48 11 -39 4 8 5 36 3 62 -2 31 1 51 11 61 10 9 11 17 5 21
-13 8 -13 52 -1 60 14 8 32 -30 25 -49 -4 -11 0 -16 14 -16 26 0 36 -14 62
-82 13 -36 27 -58 40 -61 11 -3 24 -17 30 -32 8 -20 15 -26 30 -22 13 3 20 -1
23 -17 3 -11 3 5 1 37 -2 32 -8 66 -14 77 -15 28 -3 52 20 40 10 -6 28 -10 39
-10 33 0 106 40 117 64 6 14 17 20 34 19 14 -1 18 0 8 3 -10 3 -18 10 -18 15
0 6 4 8 9 4 5 -3 24 3 43 14 18 10 77 33 131 51 53 17 97 36 97 41 0 5 -43 -6
-95 -25 -52 -19 -95 -30 -97 -25 -2 5 0 82 5 171 4 90 6 218 5 285 l-3 122 52
7 c29 3 70 4 93 2 22 -2 40 0 40 5 0 5 -46 8 -102 5 l-103 -3 23 44 c12 24 22
54 22 65 0 19 -3 18 -24 -9 -14 -16 -27 -41 -31 -54 -7 -28 -22 -43 -62 -68
-17 -10 -58 -37 -92 -60 l-62 -42 3 34 c1 19 5 35 9 35 9 0 10 14 9 90 -1 30
-5 57 -10 60 -5 3 -2 22 8 43 17 37 32 48 32 24 0 -7 9 -22 19 -34 12 -12 16
-25 11 -33 -5 -7 -6 -19 -3 -27 8 -20 41 -16 55 7 7 11 23 20 35 20 37 0 72
21 85 52 17 38 28 35 28 -6 0 -34 1 -34 49 -38 l50 -3 0 124 c0 68 3 149 7
180 l6 57 -42 -4 c-40 -4 -43 -3 -37 17 8 32 -16 26 -31 -8 -9 -21 -10 -54 -2
-142 8 -97 7 -116 -6 -129 -13 -13 -14 -3 -12 98 l3 114 -33 29 c-18 16 -41
29 -52 29 -22 0 -27 15 -7 23 6 3 2 6 -9 6 -12 1 -24 -6 -28 -14 -3 -8 -10
-15 -17 -15 -6 0 -8 7 -5 16 4 11 1 14 -12 12 -9 -2 -16 -12 -15 -22 0 -10 -7
-26 -18 -37 -10 -10 -19 -26 -19 -34 0 -24 -14 -17 -28 13 -15 35 -49 52 -103
52 -52 0 -78 -14 -93 -52 l-13 -30 -32 56 -32 56 -59 0 c-55 0 -60 -2 -88 -37
l-29 -37 -28 22 c-30 24 -110 30 -146 12 -12 -7 -19 -7 -19 -1 0 28 -33 41
-104 41 -72 0 -72 0 -112 -42 l-39 -43 3 -152 3 -153 50 0 49 0 0 74 c0 87 5
106 31 106 17 0 19 8 19 60 0 59 -10 73 -36 52 -5 -4 -31 -5 -59 -2 l-50 5 53
43 c44 34 61 42 96 42 68 0 80 -21 77 -133 -2 -104 4 -120 59 -136 34 -11 34
-11 -12 -6 l-48 5 0 -34 c0 -99 176 -119 209 -25 6 18 11 82 11 144 l0 111 33
32 c44 43 94 52 127 22 22 -19 23 -20 3 -11 -46 23 -121 3 -143 -38 -5 -11
-10 -74 -10 -140 0 -111 2 -122 23 -147 18 -20 35 -28 73 -31 43 -5 54 -2 82
22 l32 27 0 101 c0 55 3 98 6 94 4 -3 10 -53 14 -109 l8 -103 -45 -42 -46 -42
29 -48 30 -48 -42 -125 c-23 -69 -48 -144 -54 -167 -9 -36 -22 -51 -77 -93
-36 -27 -69 -50 -72 -50 -3 0 -11 10 -16 22 -10 22 -41 33 -51 17 -8 -13 -101
-11 -127 3 -20 10 -21 10 -8 -6 12 -14 28 -17 81 -14 l67 3 -8 -27 c-4 -16 -4
-28 0 -28 5 0 11 14 15 30 3 17 10 30 16 30 15 0 13 -97 -2 -103 -10 -4 -10
-6 0 -6 7 -1 17 10 22 24 8 22 138 127 192 156 18 10 19 8 13 -13 -3 -12 -17
-43 -29 -68 -21 -42 -25 -45 -64 -45 -32 0 -48 -7 -74 -32 -32 -31 -35 -31
-129 -32 -81 -1 -98 2 -103 15 -9 25 0 28 26 10 26 -18 93 -21 104 -5 4 8 9 7
15 -2 6 -10 9 -8 9 9 0 22 -1 22 -22 8 -28 -20 -61 -20 -99 -1 -42 22 -175
114 -189 130 -6 8 -20 47 -30 87 -11 40 -26 93 -34 118 -8 25 -22 82 -32 128
-18 85 -18 85 17 154 6 13 3 18 -12 23 -20 7 -20 7 -2 27 15 17 18 39 19 139
1 65 -2 117 -6 114 -4 -3 -21 2 -36 10 -41 21 -96 19 -128 -6 -21 -17 -26 -18
-26 -5 0 19 -40 31 -75 22 -19 -5 -25 -13 -26 -34 l-1 -27 -10 28 c-10 28 -45
44 -74 33 -20 -8 -70 50 -66 76 2 11 -3 18 -14 18 -11 0 -15 -6 -12 -18z m22
-53 c25 -20 26 -23 26 -140 0 -115 -1 -121 -26 -146 -22 -22 -32 -25 -71 -20
-73 8 -78 18 -78 163 0 120 1 127 24 145 31 26 91 25 125 -2z m867 2 c22 -18
24 -27 27 -133 3 -133 -6 -159 -59 -172 -61 -15 -119 11 -119 55 0 30 57 27
62 -3 2 -15 10 -23 23 -23 16 0 21 9 26 48 6 54 -1 64 -30 45 -14 -9 -28 -9
-48 -2 -27 9 -28 12 -31 86 -2 67 0 80 18 98 27 27 99 27 131 1z m214 7 c35
-16 49 -73 42 -178 -7 -102 -11 -114 -43 -129 -38 -17 -78 -13 -108 10 -26 20
-26 22 -26 144 0 122 0 124 26 144 30 23 70 27 109 9z m239 -9 c26 -20 26 -23
26 -142 0 -67 -4 -127 -8 -133 -24 -37 -96 -44 -136 -13 -26 20 -26 23 -26
142 0 67 4 127 8 133 25 37 96 44 136 13z m230 0 c26 -20 26 -22 26 -144 0
-122 0 -124 -26 -144 -35 -28 -86 -27 -119 2 -24 21 -25 26 -26 137 0 63 2
122 6 131 15 40 97 51 139 18z m152 -8 c-3 -9 -6 -60 -7 -113 -3 -94 -4 -98
-25 -98 -19 0 -22 7 -28 53 -5 44 -9 160 -7 177 1 4 17 4 36 2 27 -3 34 -8 31
-21z m-1584 -45 c3 -5 9 -49 13 -98 5 -65 11 -88 21 -88 10 0 14 13 14 43 0
23 3 66 6 95 6 48 9 52 34 52 l27 0 -18 -122 c-10 -68 -19 -125 -19 -128 0 -3
-22 -4 -48 -2 l-48 4 -13 91 c-7 51 -15 108 -18 128 -5 33 -3 36 18 35 13 -1
27 -5 31 -10z m300 -16 c10 -13 18 -39 18 -61 l0 -39 -56 0 -55 0 3 -52 c3
-45 6 -53 23 -53 15 0 21 8 23 33 3 28 7 32 33 32 24 0 29 -4 29 -25 0 -14
-12 -37 -26 -52 -21 -21 -32 -25 -66 -20 -68 9 -78 26 -78 133 0 89 1 93 28
114 34 28 98 22 124 -10z m128 5 c0 -8 5 -15 10 -15 6 0 13 7 16 15 11 27 24
16 24 -20 0 -19 -4 -35 -9 -35 -28 0 -41 -34 -41 -106 l0 -74 -30 0 -30 0 0
125 0 125 30 0 c20 0 30 -5 30 -15z m-472 -190 c12 -51 25 -83 37 -89 13 -8
19 -8 22 2 3 6 19 12 36 12 l32 0 2 -88 c1 -63 8 -101 23 -136 11 -27 19 -51
17 -53 -4 -3 -35 24 -134 118 -63 60 -76 77 -96 126 -15 38 -15 42 2 57 22 20
31 20 31 1 0 -8 7 -15 15 -15 8 0 15 4 15 9 0 5 -7 14 -15 21 -10 8 -15 31
-15 68 0 30 2 53 5 51 2 -3 13 -41 23 -84z m733 14 l-10 -24 0 26 c-1 14 2 29
6 33 12 12 14 -9 4 -35z m-561 -10 c0 -10 -4 -19 -10 -19 -5 0 -10 12 -10 26
0 14 4 23 10 19 6 -3 10 -15 10 -26z m1450 -26 c0 -19 -6 -23 -30 -23 -24 0
-30 4 -30 23 0 18 6 22 30 22 24 0 30 -4 30 -22z m-1361 -53 c9 0 26 -15 36
-32 23 -37 65 -190 60 -216 -15 -72 -16 -74 -30 -62 -9 7 -15 8 -15 2 0 -12
24 -22 56 -22 14 0 24 -6 24 -14 0 -8 3 -21 6 -30 12 -31 -36 -17 -99 28 -78
55 -102 81 -122 130 -21 49 -31 201 -16 238 l10 28 37 -25 c20 -14 44 -25 53
-25z m873 6 c17 -12 16 -15 -11 -37 -15 -13 -33 -34 -40 -46 -15 -29 -25 -29
-38 -2 -7 18 -3 29 26 60 41 44 40 43 63 25z m-1082 -6 c0 -5 -4 -10 -9 -10
-6 0 -13 5 -16 10 -3 6 1 10 9 10 9 0 16 -4 16 -10z m290 -16 c0 -8 -4 -14 -9
-14 -11 0 -22 26 -14 34 9 9 23 -3 23 -20z m1050 17 c0 -5 -7 -12 -16 -15 -24
-9 -28 -7 -14 9 14 17 30 20 30 6z m-135 -24 c11 -42 -21 -199 -49 -242 -16
-24 -108 -97 -162 -129 -45 -27 -67 -16 -53 24 9 24 17 30 41 30 50 0 85 27
86 68 1 20 -5 43 -13 53 -21 22 -9 55 13 37 13 -11 14 -10 8 8 -8 27 19 53 36
36 18 -18 13 -71 -8 -86 -10 -8 -15 -18 -11 -23 10 -10 35 22 44 55 4 15 -2
33 -15 52 -20 27 -20 29 -3 44 25 23 34 20 27 -9 -4 -14 -2 -25 3 -25 13 0 24
51 13 62 -15 15 -39 -2 -85 -60 -62 -80 -71 -100 -56 -118 7 -8 18 -13 26 -10
7 3 13 1 13 -4 0 -13 -66 -16 -78 -5 -8 7 40 122 70 167 40 63 82 98 119 98
21 0 30 -6 34 -23z m239 -109 c3 -13 6 -64 6 -114 0 -97 -19 -457 -25 -462
-10 -10 -81 -29 -92 -25 -8 3 -23 23 -34 44 -11 22 -25 39 -33 39 -13 0 -13 6
-8 273 l2 99 40 15 c22 9 40 20 40 25 0 5 -4 7 -9 3 -6 -3 -36 -8 -68 -10 -49
-4 -55 -3 -40 7 11 7 56 38 100 69 91 63 112 69 121 37z m-394 -103 c0 -8 -4
-15 -10 -15 -5 0 -10 7 -10 15 0 8 5 15 10 15 6 0 10 -7 10 -15z m175 -35 c3
-6 -2 -13 -12 -16 -10 -3 -26 -10 -37 -15 -18 -10 -18 -10 0 15 20 27 39 33
49 16z m-175 -23 c0 -5 -9 -11 -20 -14 -11 -3 -17 -9 -14 -14 3 -5 -2 -6 -10
-3 -18 7 -18 7 -11 26 6 14 55 18 55 5z m196 -129 c-8 -151 -13 -178 -31 -178
-7 0 -19 -10 -27 -22 -14 -21 -16 -21 -54 -7 -24 9 -40 22 -42 34 -3 16 -1 17
9 8 8 -8 18 -9 31 -2 23 12 23 24 -1 58 -16 22 -19 42 -18 100 l3 72 64 34
c36 19 67 34 69 34 2 1 1 -59 -3 -131z m-1076 -35 c0 -52 -4 -83 -11 -83 -6 0
-8 -8 -5 -18 5 -15 -2 -20 -41 -29 -27 -5 -56 -13 -65 -18 -15 -6 -18 -2 -18
18 0 28 23 154 39 215 l11 40 45 -21 45 -21 0 -83z m926 25 c-4 -44 -13 -79
-23 -90 -13 -14 -13 -21 -3 -33 9 -11 9 -22 1 -46 -9 -25 -8 -30 3 -26 8 3 17
-1 20 -8 3 -8 12 -12 20 -9 8 3 27 -1 42 -9 27 -14 29 -13 48 16 27 39 51 49
41 16 -18 -59 -60 -77 -113 -50 -20 10 -44 16 -52 14 -13 -4 -13 -3 0 6 11 8
7 10 -20 5 -26 -4 -31 -3 -20 5 8 6 10 11 4 11 -10 0 -53 -29 -44 -30 3 -1 27
-2 53 -4 27 -2 54 -10 60 -16 9 -10 8 -12 -5 -7 -10 4 -18 2 -18 -3 0 -6 -7
-10 -15 -10 -9 0 -12 6 -9 15 4 10 0 15 -15 15 -12 0 -21 -6 -21 -13 0 -17
-38 -52 -47 -44 -3 4 -1 7 5 7 7 0 12 5 12 11 0 5 -4 7 -10 4 -5 -3 -17 -2
-25 2 -12 7 -10 18 15 68 26 52 41 106 65 232 6 28 17 38 49 42 5 0 6 -30 2
-71z m-870 54 c6 -4 16 -49 23 -101 6 -51 18 -108 25 -125 24 -54 70 -94 130
-111 60 -18 63 -21 42 -50 -13 -18 -18 -18 -67 -6 -64 17 -139 63 -156 96 -23
43 -43 148 -43 228 0 67 2 77 18 77 9 0 22 -4 28 -8z m66 -57 c6 -28 5 -41 -4
-47 -8 -4 -9 -8 -2 -8 6 0 16 -17 22 -37 29 -94 95 -146 182 -144 59 1 92 -13
114 -49 10 -18 26 -30 38 -30 16 0 18 -3 9 -13 -6 -8 -10 -16 -8 -18 1 -2 -4
2 -10 10 -11 12 -13 11 -19 -5 -3 -10 -10 -29 -15 -42 -5 -13 -9 -38 -9 -56 0
-19 -8 -44 -18 -56 l-18 -23 -60 45 c-49 36 -59 48 -53 63 42 114 38 137 -21
147 -36 6 -53 16 -82 50 -21 24 -38 48 -38 54 0 6 -6 24 -14 40 -17 35 -27
166 -12 161 6 -2 14 -21 18 -42z m70 -4 c11 -42 6 -47 -26 -26 -34 23 -37 68
-4 63 15 -2 24 -13 30 -37z m643 -62 c-24 -96 -32 -112 -75 -138 -44 -28 -62
-32 -79 -22 -7 5 3 14 27 25 51 23 101 111 102 180 0 11 8 28 18 39 17 19 17
19 20 -1 2 -11 -4 -48 -13 -83z m-37 66 c-2 -9 -19 -26 -37 -38 -19 -12 -32
-17 -28 -11 3 6 11 23 16 38 12 29 55 39 49 11z m-612 -58 c17 -12 58 -41 90
-63 65 -46 100 -81 91 -90 -12 -13 -89 -5 -124 13 -20 10 -45 29 -55 43 -20
28 -51 120 -40 119 4 0 21 -10 38 -22z m764 -52 c21 -23 22 -25 5 -31 -20 -8
-60 31 -49 47 9 14 19 11 44 -16z m-930 -58 c0 -8 -24 -18 -62 -26 -71 -14
-167 -56 -217 -94 -32 -25 -51 -27 -51 -8 0 12 132 91 183 109 92 32 147 40
147 19z m660 -27 c-14 -11 -32 -20 -40 -20 -10 0 -7 7 10 20 14 11 32 20 40
20 10 0 7 -7 -10 -20z m-647 -20 c4 -14 -2 -22 -22 -29 -26 -9 -25 -9 9 -10
26 -1 31 -4 20 -11 -13 -8 -13 -10 2 -10 9 0 38 -13 65 -30 26 -16 72 -35 101
-42 53 -13 53 -13 47 -45 -3 -18 -18 -58 -33 -90 -36 -80 -38 -170 -3 -207 14
-14 22 -26 19 -26 -4 0 -13 -3 -21 -6 -11 -4 -16 2 -19 18 -6 44 -78 32 -78
-13 0 -16 -8 -19 -47 -19 -59 0 -136 34 -193 86 -47 43 -104 156 -94 187 4 14
3 17 -6 12 -10 -6 -11 -1 -6 18 5 22 3 25 -11 20 -12 -5 -14 -3 -8 7 11 17 14
90 4 90 -5 0 -6 7 -2 15 7 20 70 53 158 81 88 29 111 30 118 4z m739 -44 c-14
-40 -20 -47 -39 -43 -13 2 -20 0 -16 -6 3 -6 1 -7 -5 -4 -16 11 -44 -3 -33
-17 4 -6 12 -21 15 -33 6 -17 3 -23 -8 -23 -10 0 -13 6 -10 15 4 8 1 15 -5 15
-6 0 -11 7 -11 15 0 28 -42 35 -78 14 -18 -10 -50 -19 -70 -19 l-37 0 25 20
c14 10 42 27 64 37 36 16 39 16 51 0 10 -14 21 -16 54 -11 32 5 48 16 77 51
20 24 38 43 40 41 2 -2 -5 -25 -14 -52z m-79 10 c22 -17 12 -25 -29 -22 -37 3
-56 14 -49 27 9 14 57 10 78 -5z m409 -5 c-3 -9 -1 -12 5 -8 7 5 9 -1 6 -15
-3 -13 -1 -19 4 -13 5 7 17 2 33 -13 24 -22 24 -23 3 -28 -13 -4 -19 -12 -16
-22 5 -22 -71 -53 -109 -45 -59 12 -16 47 55 46 29 0 46 2 40 4 -10 3 -9 9 3
20 8 8 12 18 9 21 -3 3 -11 0 -17 -6 -30 -30 -86 -2 -75 37 3 15 1 18 -12 14
-13 -4 -14 -3 -1 5 8 6 17 9 21 6 4 -2 10 0 14 5 9 16 44 9 37 -8z m-587 -11
c-3 -5 -13 -10 -21 -10 -8 0 -14 -4 -14 -10 0 -15 -19 -12 -36 4 -22 22 -17
26 32 26 27 0 43 -4 39 -10z m75 6 c0 -6 -93 -57 -97 -53 -5 6 70 57 84 57 7
0 13 -2 13 -4z m409 -7 c20 -7 31 -18 31 -29 0 -11 8 -23 17 -29 15 -8 11 -12
-25 -26 -23 -10 -42 -23 -42 -31 0 -8 -7 -14 -15 -14 -26 0 -17 19 18 36 17 9
35 22 39 28 9 14 -12 38 -29 32 -7 -3 -25 -1 -39 4 -22 9 -24 13 -14 25 15 18
18 18 59 4z m-71 -22 c18 -14 16 -111 -3 -127 -8 -7 -22 -10 -30 -6 -17 6 -21
46 -5 46 6 0 10 6 10 14 0 8 6 16 13 19 6 2 9 8 4 13 -4 4 -14 -2 -22 -14 -15
-20 -16 -20 -46 -4 l-30 17 33 29 c18 16 25 26 15 22 -11 -3 -16 -2 -12 4 7
11 53 3 73 -13z m-1173 -88 c-6 -18 -9 -17 -24 13 -12 23 -14 37 -7 46 13 19
39 -31 31 -59z m995 31 c0 -16 -5 -30 -11 -30 -6 0 -9 7 -5 15 3 8 1 15 -4 15
-6 0 -10 7 -10 15 0 8 7 15 15 15 10 0 15 -10 15 -30z m224 19 c4 6 16 11 28
11 16 0 18 -3 9 -14 -6 -8 -22 -16 -34 -18 -18 -3 -23 0 -25 16 -1 15 1 17 7
7 6 -9 11 -10 15 -2z m-348 -52 c1 -26 -2 -47 -8 -47 -5 0 -14 -14 -20 -31
-12 -34 -29 -22 -21 15 4 15 2 17 -5 7 -6 -8 -18 -11 -31 -6 -13 4 -28 1 -36
-5 -12 -10 -15 -9 -15 4 0 9 4 16 10 16 5 0 7 6 4 13 -6 16 66 43 90 34 8 -3
18 -2 21 3 4 6 -1 10 -9 10 -18 0 -19 2 -10 25 12 30 29 9 30 -38z m-46 24 c0
-6 -20 -13 -44 -16 -34 -5 -46 -12 -50 -28 -9 -35 -7 -79 4 -72 6 3 10 -3 10
-13 0 -11 7 -25 15 -32 8 -7 15 -17 15 -23 0 -5 -9 -2 -20 8 -11 10 -20 24
-20 32 0 18 -13 16 -44 -8 -19 -15 -26 -30 -26 -55 0 -28 -4 -34 -21 -34 -16
0 -19 4 -14 18 4 9 8 25 9 35 1 9 11 26 23 36 12 12 23 38 27 68 9 67 17 76
78 84 29 3 54 7 56 8 1 0 2 -3 2 -8z m385 -61 c12 -20 24 -70 15 -65 -5 3 -11
1 -15 -5 -9 -14 -65 16 -65 35 0 8 7 15 15 15 9 0 18 7 21 15 7 17 20 20 29 5z
m-391 -74 c3 -12 -1 -27 -9 -35 -13 -13 -17 -12 -35 4 -19 17 -27 55 -14 68
11 11 52 -15 58 -37z m-318 17 c-16 -57 -17 -94 -2 -124 16 -33 11 -54 -18
-78 -12 -10 -16 -6 -25 26 -6 21 -11 43 -11 49 0 27 42 144 51 144 6 0 8 -8 5
-17z m83 -32 l45 -38 -12 -41 c-11 -38 -46 -72 -74 -72 -6 0 -23 -10 -36 -22
l-25 -23 19 33 c16 27 23 32 44 27 23 -5 23 -4 -7 20 -29 23 -33 32 -33 75 0
92 13 98 79 41z m651 -12 c0 -24 -23 -21 -28 4 -2 10 3 17 12 17 10 0 16 -9
16 -21z m-512 -1 c-3 -7 -13 -15 -24 -17 -16 -3 -17 -1 -5 13 16 19 34 21 29
4z m196 -13 c3 -8 2 -23 -1 -32 -6 -15 -7 -15 -14 3 -11 27 -11 44 0 44 5 0
11 -7 15 -15z m-155 -29 c26 -28 21 -46 -15 -46 -21 0 -24 5 -24 35 0 41 8 44
39 11z m-49 -14 c0 -34 -7 -43 -26 -35 -8 3 -14 18 -14 34 0 22 5 29 20 29 15
0 20 -7 20 -28z m-19 -58 c11 -9 19 -23 19 -31 0 -11 4 -11 21 -3 11 7 23 10
25 7 6 -6 -22 -28 -38 -31 -7 -1 -24 -6 -36 -10 -19 -6 -30 -2 -53 20 -26 25
-34 25 -30 2 1 -11 -17 -10 -23 0 -3 5 4 16 16 26 19 17 21 17 35 -3 8 -12 24
-26 36 -32 16 -8 13 -2 -10 21 -41 40 -43 62 -7 56 15 -3 35 -13 45 -22z m79
1 c0 -2 -9 -9 -20 -15 -22 -12 -44 -5 -35 11 6 9 55 13 55 4z m-597 -122 c45
-23 64 -27 142 -27 50 0 106 3 125 8 l35 7 -35 -22 c-66 -42 -92 -92 -92 -176
1 -72 3 -71 -84 -33 -80 34 -175 144 -190 219 -4 18 -10 28 -13 23 -3 -6 -7
12 -8 39 l-1 49 34 -30 c19 -16 58 -42 87 -57z m405 62 c17 -14 35 -25 42 -25
7 0 10 -6 7 -14 -4 -11 2 -12 26 -6 18 3 45 3 61 -1 16 -5 36 -4 45 1 11 6 21
0 38 -23 13 -17 23 -32 23 -34 0 -1 -12 -10 -27 -18 -16 -9 -19 -13 -8 -10 33
11 37 10 42 -2 3 -9 -5 -13 -24 -13 -16 0 -35 6 -42 13 -11 10 -14 10 -18 0
-6 -17 -23 -17 -23 0 0 8 16 25 36 39 32 24 33 26 12 27 -76 5 -108 4 -150 -3
-41 -6 -47 -5 -42 8 3 9 10 16 15 16 5 0 9 5 9 11 0 6 -6 9 -12 6 -17 -5 -70
32 -63 44 9 14 21 11 53 -16z m-33 -33 c-3 -3 -11 0 -18 7 -9 10 -8 11 6 5 10
-3 15 -9 12 -12z m-36 -11 c17 -11 5 -17 -41 -20 -41 -3 -53 15 -15 22 37 7
41 7 56 -2z m45 -30 c4 -5 52 -7 109 -5 65 3 97 1 87 -5 -8 -5 -18 -7 -22 -5
-4 3 -8 -2 -8 -10 0 -18 -16 -21 -25 -6 -3 6 -28 10 -55 10 -41 0 -51 -4 -68
-27 -19 -27 -21 -27 -73 -17 -49 11 -54 10 -75 -11 -29 -29 -47 -98 -41 -153
3 -29 1 -42 -7 -39 -7 2 -11 32 -11 80 0 91 14 116 95 165 55 32 84 40 94 23z
m142 -46 c19 -15 19 -15 0 -30 -22 -16 -57 -18 -96 -4 -19 6 -12 8 27 5 38 -2
56 1 65 12 11 13 10 14 -7 6 -11 -5 -40 -7 -65 -4 -43 6 -44 7 -20 17 35 16
73 15 96 -2z m-51 -46 c28 0 82 3 122 6 57 5 75 3 90 -9 10 -9 31 -27 48 -40
l30 -24 -39 -8 c-42 -7 -382 1 -453 12 -47 7 -51 14 -27 38 8 9 13 16 9 16 -3
0 -3 5 1 11 4 7 33 9 88 4 44 -3 104 -6 131 -6z m51 -86 l242 -6 11 -25 c7
-13 9 -27 6 -31 -10 -9 -461 -7 -516 2 -45 8 -47 9 -44 40 2 18 3 34 4 36 1 2
13 0 29 -3 15 -4 136 -10 268 -13z m52 -85 c179 -1 232 -4 232 -14 0 -18 -134
-28 -270 -19 -63 4 -141 8 -173 10 -88 5 -137 15 -137 29 0 10 14 11 58 4 31
-5 162 -9 290 -10z"/>
<path d="M150 1785 c0 -116 1 -125 19 -125 25 0 31 26 31 132 0 99 -5 118 -31
118 -18 0 -19 -9 -19 -125z m27 28 c-2 -16 -4 -3 -4 27 0 30 2 43 4 28 2 -16
2 -40 0 -55z m3 -90 c0 -25 -2 -44 -4 -42 -8 10 -13 89 -5 89 5 0 9 -21 9 -47z"/>
<path d="M1015 1898 c-4 -14 -5 -47 -3 -74 3 -41 6 -49 23 -49 18 0 20 7 20
70 0 58 -3 70 -17 73 -11 2 -19 -5 -23 -20z m22 -80 c-3 -7 -5 -2 -5 12 0 14
2 19 5 13 2 -7 2 -19 0 -25z"/>
<path d="M1245 1908 c-3 -8 -4 -68 -3 -134 3 -111 4 -119 23 -119 19 0 20 7
20 130 0 116 -2 130 -18 133 -9 2 -19 -3 -22 -10z m22 -180 c-2 -35 -3 -9 -3
57 0 66 1 94 3 63 2 -32 2 -86 0 -120z"/>
<path d="M1475 1908 c-3 -8 -4 -68 -3 -134 3 -111 4 -119 23 -119 19 0 20 7
20 130 0 116 -2 130 -18 133 -9 2 -19 -3 -22 -10z m22 -80 c-3 -8 -6 -5 -6 6
-1 11 2 17 5 13 3 -3 4 -12 1 -19z m0 -105 c-2 -16 -4 -5 -4 22 0 28 2 40 4
28 2 -13 2 -35 0 -50z"/>
<path d="M1705 1908 c-3 -8 -4 -68 -3 -134 3 -111 4 -119 23 -119 19 0 20 7
20 130 0 116 -2 130 -18 133 -9 2 -19 -3 -22 -10z m22 -170 c-2 -29 -3 -8 -3
47 0 55 1 79 3 53 2 -26 2 -71 0 -100z"/>
<path d="M567 1853 c-4 -3 -7 -21 -7 -40 0 -28 3 -32 22 -30 26 4 32 19 24 52
-6 24 -25 33 -39 18z"/>
<path d="M496 1577 c-9 -34 -7 -65 4 -72 7 -4 9 2 4 18 -3 14 -2 33 3 42 8 13
12 12 33 -10 l24 -25 -22 -16 c-16 -11 -22 -25 -22 -54 0 -42 8 -70 20 -70 4
0 2 18 -4 40 -11 44 -2 72 26 78 27 5 32 -31 8 -50 -17 -14 -18 -18 -7 -18 9
0 19 5 22 10 4 6 11 8 16 4 5 -3 0 -18 -11 -34 -23 -32 -25 -49 -9 -84 11 -24
74 -45 66 -22 -2 6 -13 11 -24 11 -30 0 -36 10 -17 26 13 11 18 11 21 2 3 -7
9 -13 14 -13 4 0 6 7 2 16 -4 12 -14 14 -34 10 -16 -3 -29 -1 -29 4 0 5 10 10
22 12 33 5 33 29 -2 100 -48 97 -92 137 -104 95z m122 -169 c-2 -6 -10 -14
-16 -16 -7 -2 -10 2 -6 12 7 18 28 22 22 4z"/>
<path d="M1660 1317 c0 -2 20 -18 44 -35 49 -35 76 -44 36 -11 -27 21 -80 52
-80 46z"/>
<path d="M1770 1239 c0 -5 5 -7 10 -4 6 3 10 8 10 11 0 2 -4 4 -10 4 -5 0 -10
-5 -10 -11z"/>
<path d="M420 1042 c0 -4 18 -6 40 -4 22 2 40 6 40 8 0 2 -18 4 -40 4 -22 0
-40 -3 -40 -8z"/>
<path d="M760 1034 c0 -15 59 -79 66 -72 3 3 -11 23 -30 44 -20 22 -36 34 -36
28z"/>
<path d="M443 855 c-35 -23 -55 -45 -62 -67 -14 -43 -20 -135 -11 -173 5 -20
8 0 9 60 1 108 14 132 93 181 29 19 46 34 38 34 -8 0 -38 -16 -67 -35z"/>
<path d="M625 650 c-9 -15 3 -30 24 -30 25 0 33 11 20 27 -13 15 -35 17 -44 3z
m30 -10 c3 -5 1 -10 -4 -10 -6 0 -11 5 -11 10 0 6 2 10 4 10 3 0 8 -4 11 -10z"/>
<path d="M260 835 c0 -5 5 -17 10 -25 5 -8 10 -10 10 -5 0 6 -5 17 -10 25 -5
8 -10 11 -10 5z"/>
<path d="M1090 760 l-45 -7 42 -1 c23 -1 45 3 48 8 3 6 5 9 3 8 -2 0 -23 -4
-48 -8z"/>
<path d="M490 312 c0 -40 4 -72 8 -72 8 0 5 131 -4 139 -2 2 -4 -28 -4 -67z"/>
<path d="M777 374 c-44 -24 -26 -27 24 -4 26 11 36 19 24 19 -11 0 -33 -7 -48
-15z"/>
<path d="M930 1585 c38 -65 60 -113 60 -130 0 -23 19 -18 25 8 4 13 5 46 2 73
-3 45 -4 43 -5 -16 l-2 -65 -35 70 c-20 38 -43 77 -52 85 -10 10 -8 0 7 -25z"/>
<path d="M734 1576 c-18 -5 -39 -23 -49 -39 -17 -28 -17 -30 -1 -24 10 4 37 2
62 -4 36 -9 57 -25 109 -81 39 -42 62 -75 58 -84 -3 -8 1 -14 10 -14 17 0 32
-18 24 -27 -3 -3 -37 1 -76 8 -92 16 -106 31 -106 115 0 54 -2 62 -12 47 -18
-23 -16 -76 3 -117 17 -35 35 -43 132 -61 46 -9 40 -25 -10 -27 -49 -1 -51 -2
-95 -12 -18 -4 -36 -12 -40 -18 -4 -8 0 -9 11 -5 10 4 50 12 89 17 108 16 123
20 108 30 -10 6 -7 12 13 25 26 18 37 49 13 39 -17 -6 -34 14 -82 96 -74 124
-107 153 -161 136z m61 -37 c10 -15 -1 -22 -24 -14 -12 3 -19 11 -16 16 8 12
32 11 40 -2z"/>
<path d="M1079 1521 c-27 -26 -49 -54 -49 -60 0 -7 11 1 25 17 14 17 41 44 60
61 20 17 30 31 24 31 -7 0 -34 -22 -60 -49z"/>
<path d="M1137 1414 c-55 -48 -93 -74 -102 -70 -18 6 -19 1 -4 -25 8 -16 13
-18 24 -9 8 7 19 9 25 5 7 -4 14 1 16 12 7 26 130 96 158 90 11 -2 29 -8 39
-12 14 -6 17 -2 17 29 0 30 -5 38 -26 46 -45 17 -57 12 -147 -66z m133 35 c0
-5 -11 -8 -24 -7 -19 2 -22 5 -15 15 11 12 39 7 39 -8z"/>
<path d="M999 1394 c-5 -61 -3 -94 6 -94 11 0 12 97 1 107 -3 4 -7 -2 -7 -13z"/>
<path d="M1240 1377 c0 -42 -25 -64 -82 -71 -67 -9 -118 -25 -118 -37 0 -7 20
-8 53 -4 41 5 62 2 100 -14 26 -11 47 -16 47 -12 0 16 -67 41 -112 42 l-43 1
55 9 c89 14 96 17 108 44 15 32 16 65 2 65 -5 0 -10 -10 -10 -23z"/>
<path d="M1918 1257 c-43 -5 -78 -13 -78 -18 0 -4 12 -6 26 -3 14 3 50 6 80 7
35 1 54 6 54 15 0 6 -1 11 -2 11 -2 -1 -38 -6 -80 -12z"/>
<path d="M990 1218 c0 -6 -8 -20 -17 -31 -13 -15 -15 -21 -5 -24 6 -3 12 -10
12 -16 0 -8 17 -11 52 -8 48 3 51 2 38 -14 -12 -14 -27 -16 -87 -13 -67 3 -73
2 -73 -16 0 -11 3 -16 7 -13 3 4 14 0 24 -9 17 -15 35 -16 114 -2 22 3 40 57
24 73 -5 5 -25 8 -44 7 -41 -3 -51 12 -36 51 7 17 7 27 1 27 -6 0 -10 -5 -10
-12z m55 -129 c3 -4 -15 -10 -40 -13 -43 -7 -65 -3 -65 12 0 9 96 9 105 1z"/>
<path d="M1095 1150 c3 -5 8 -10 11 -10 2 0 4 5 4 10 0 6 -5 10 -11 10 -5 0
-7 -4 -4 -10z"/>
<path d="M890 1139 c0 -5 5 -7 10 -4 6 3 10 8 10 11 0 2 -4 4 -10 4 -5 0 -10
-5 -10 -11z"/>
<path d="M928 1143 c6 -2 18 -2 25 0 6 3 1 5 -13 5 -14 0 -19 -2 -12 -5z"/>
<path d="M75 1059 c22 -4 58 -8 80 -7 l40 1 -45 8 c-25 4 -61 7 -80 7 l-35 0
40 -9z"/>
<path d="M257 1043 c18 -2 50 -2 70 0 21 2 7 4 -32 4 -38 0 -55 -2 -38 -4z"/>
<path d="M983 1013 c9 -2 25 -2 35 0 9 3 1 5 -18 5 -19 0 -27 -2 -17 -5z"/>
<path d="M1851 839 c-63 -22 -125 -49 -139 -59 -13 -11 -28 -17 -33 -14 -5 3
-23 -4 -40 -16 -29 -22 -56 -23 -104 -6 -17 7 -18 6 -5 -6 9 -7 14 -21 12 -31
-2 -10 4 -29 13 -43 14 -21 14 -30 3 -59 -6 -19 -15 -35 -19 -35 -3 0 -9 -27
-13 -60 -6 -48 -14 -68 -38 -96 -17 -19 -28 -37 -26 -40 3 -3 17 9 31 26 15
17 30 32 34 33 4 1 7 13 5 27 -1 14 1 20 5 15 4 -6 47 -23 96 -38 108 -35 118
-47 118 -148 0 -79 -17 -141 -52 -190 -27 -39 -110 -80 -179 -89 l-55 -7 63
-2 c52 -1 71 4 116 29 52 30 106 93 106 124 0 8 5 16 11 18 6 2 11 40 12 96 1
59 6 92 13 92 16 0 44 -34 44 -53 0 -9 4 -17 9 -17 5 0 7 -10 4 -22 -4 -18 -2
-20 5 -9 8 12 12 7 15 -20 3 -25 4 -23 2 8 -2 43 -49 122 -72 123 -7 0 -30 15
-50 33 -31 27 -86 58 -113 63 -73 13 -80 17 -80 44 0 34 22 89 57 142 l27 40
16 -23 c24 -31 44 -16 37 27 -5 32 5 46 18 24 4 -7 13 -6 26 1 15 8 19 17 15
34 -5 20 0 25 52 43 31 12 77 27 102 33 25 7 51 17 58 22 22 17 25 -1 7 -38
-9 -20 -14 -39 -11 -43 3 -3 -1 -16 -9 -29 -14 -21 -14 -23 0 -23 8 0 14 -3
13 -7 0 -5 2 -15 5 -23 3 -8 10 -31 16 -50 l9 -35 1 35 c0 19 -4 53 -9 75 -6
24 -6 52 -1 70 5 17 12 45 15 63 7 42 1 41 -143 -9z m-196 -109 c-16 -16 -31
-28 -33 -25 -7 7 39 55 52 55 5 0 -3 -13 -19 -30z m85 21 c0 -12 -20 -25 -27
-18 -7 7 6 27 18 27 5 0 9 -4 9 -9z m-136 -37 c-6 -3 -9 -15 -7 -28 6 -31 -16
-45 -34 -21 -19 27 -16 43 10 48 30 6 44 6 31 1z m76 -31 c0 -13 -3 -13 -15
-3 -8 7 -12 16 -9 21 8 13 24 1 24 -18z"/>
<path d="M1313 774 c-9 -25 13 -40 26 -16 10 19 6 32 -11 32 -5 0 -11 -7 -15
-16z"/>
<path d="M1840 786 c0 -2 7 -9 15 -16 12 -10 15 -10 15 4 0 9 -7 16 -15 16 -8
0 -15 -2 -15 -4z"/>
<path d="M1366 740 c4 -19 14 -48 24 -65 12 -20 18 -51 19 -95 0 -58 21 -164
35 -177 2 -3 4 11 3 30 -1 19 -5 33 -9 30 -5 -2 -8 8 -8 24 0 15 -4 42 -8 58
-5 17 -6 41 -2 55 5 17 0 39 -14 65 -11 22 -26 56 -33 75 l-12 35 5 -35z"/>
<path d="M1890 760 c-8 -5 -10 -10 -5 -11 6 0 20 -2 32 -3 18 -2 20 0 12 11
-13 15 -19 16 -39 3z"/>
<path d="M1306 654 c-8 -21 -8 -59 1 -67 11 -11 33 14 33 38 0 30 -25 52 -34
29z m24 -34 c0 -11 -4 -20 -10 -20 -5 0 -10 9 -10 20 0 11 5 20 10 20 6 0 10
-9 10 -20z"/>
<path d="M1351 619 c-1 -9 7 -23 17 -30 15 -12 16 -12 6 1 -6 8 -14 22 -17 30
-5 13 -6 12 -6 -1z"/>
<path d="M1125 561 c-6 -29 11 -71 29 -71 5 0 2 8 -8 18 -11 13 -14 28 -10 50
8 40 -2 42 -11 3z"/>
<path d="M1277 555 c5 -45 23 -56 23 -14 0 24 -3 30 -9 20 -7 -12 -10 -11 -14
5 -2 10 -3 6 0 -11z"/>
<path d="M1178 564 c-12 -11 -9 -62 3 -69 17 -11 22 2 13 40 -5 20 -12 33 -16
29z"/>
<path d="M40 409 c-43 -6 -43 -6 18 -7 61 -2 79 2 45 10 -10 2 -38 1 -63 -3z"/>
<path d="M145 410 c-3 -5 -2 -10 4 -10 5 0 13 5 16 10 3 6 2 10 -4 10 -5 0
-13 -4 -16 -10z"/>
<path d="M1982 403 c-5 -10 -14 -45 -21 -78 -30 -138 -53 -188 -111 -238 -23
-20 -36 -37 -29 -39 9 -3 9 -9 0 -26 -7 -14 -8 -22 -2 -22 6 0 20 19 32 41 11
23 33 54 48 68 28 27 64 115 75 186 4 22 10 59 15 83 9 45 7 52 -7 25z"/>
<path d="M1432 355 c-15 -33 -16 -63 -1 -48 9 9 23 73 15 73 -1 0 -8 -11 -14
-25z"/>
<path d="M1451 282 c-12 -15 -32 -37 -43 -49 l-21 -22 43 -72 c31 -52 51 -75
76 -85 50 -21 66 -16 18 6 -27 12 -46 29 -55 49 -8 17 -17 31 -21 31 -9 0 -38
54 -38 69 0 6 16 28 35 48 19 20 35 41 35 45 0 12 -3 10 -29 -20z"/>
<path d="M1967 183 c-36 -87 -39 -106 -23 -148 l16 -40 -5 42 c-4 37 10 114
30 166 14 34 -2 16 -18 -20z"/>
<path d="M485 110 c-3 -6 1 -7 9 -4 18 7 21 14 7 14 -6 0 -13 -4 -16 -10z"/>
<path d="M648 13 c7 -3 16 -2 19 1 4 3 -2 6 -13 5 -11 0 -14 -3 -6 -6z"/>
</g>
</svg>
