<?xml version="1.0" standalone="no"?>
<!DOCTYPE svg PUBLIC "-//W3C//DTD SVG 20010904//EN"
 "http://www.w3.org/TR/2001/REC-SVG-20010904/DTD/svg10.dtd">
<svg version="1.0" xmlns="http://www.w3.org/2000/svg"
 width="200.000000pt" height="200.000000pt" viewBox="0 0 200.000000 200.000000"
 preserveAspectRatio="xMidYMid meet">
<metadata>
Created by potrace 1.10, written by Peter Selinger 2001-2011
</metadata>
  <defs>
    <radialGradient id="backgroundGradient" cx="50%" cy="50%" r="50%" fx="50%" fy="50%">
    <stop offset="0%" stop-color="#ee6060" />
    <stop offset="100%" stop-color="#333333" />
    </radialGradient>
  </defs>
  
  <rect width="100%" height="100%" fill="url(#backgroundGradient)" />
<g transform="translate(0.000000,200.000000) scale(0.050000,-0.050000)"
fill="#000000" stroke="none">
<path d="M5 3586 l5 -413 140 -25 c133 -23 326 -84 277 -87 -61 -3 -367 -749
-367 -894 0 -17 247 -53 334 -49 7 0 29 75 48 166 42 202 148 512 169 492 5
-5 -14 -76 -42 -158 -57 -167 -129 -439 -129 -486 0 -27 27 -32 160 -32 88 0
160 4 160 8 0 34 61 312 77 352 29 72 27 30 -7 -130 -44 -210 -42 -230 31
-230 87 0 145 35 129 77 -34 85 -30 125 20 174 73 74 63 103 -50 143 -55 19
-100 42 -100 49 0 8 -32 33 -71 58 -84 51 -77 75 11 39 94 -39 93 -11 -3 73
-181 158 -335 337 -352 407 -16 67 -21 70 -123 81 -178 18 -202 63 -202 372 0
303 36 367 208 367 68 0 92 8 92 30 0 25 -37 30 -210 30 l-211 0 6 -414z"/>
<path d="M725 3957 c-1 -20 7 -42 19 -50 14 -8 16 -4 6 13 -12 20 -7 23 17 14
18 -7 33 -4 33 7 0 10 23 19 51 19 28 0 46 8 40 18 -22 35 -163 17 -166 -21z"/>
<path d="M934 3988 c-15 -16 35 -68 65 -68 11 0 21 10 21 21 0 12 9 16 20 9
26 -16 100 7 100 31 0 21 -186 27 -206 7z"/>
<path d="M3764 3965 c5 -27 23 -33 84 -28 l78 7 -13 -167 c-7 -92 -13 -260
-13 -375 l0 -208 -105 13 -106 12 -54 -112 -55 -112 75 12 c41 7 136 13 210
13 l135 0 0 490 0 490 -121 0 c-105 0 -121 -5 -115 -35z"/>
<path d="M1559 3923 c-173 -109 -172 -130 6 -116 l155 12 0 -118 c0 -107 -4
-119 -45 -125 -42 -6 -46 -18 -55 -181 -5 -97 -17 -175 -25 -175 -8 0 -55 0
-105 0 l-90 0 0 273 c0 151 -6 268 -14 260 -7 -7 -11 -104 -8 -215 4 -158 -2
-211 -28 -251 -22 -33 -26 -57 -13 -73 22 -27 8 -128 -19 -145 -36 -22 -26
-72 141 -705 47 -179 37 -168 269 -324 105 -70 187 -132 182 -137 -5 -5 -23 3
-40 17 -37 31 -56 18 -38 -27 24 -65 383 -44 458 26 33 31 83 63 110 70 42 11
39 6 -18 -32 -38 -25 -58 -48 -45 -53 12 -4 49 12 81 34 32 23 67 42 78 42 38
0 162 249 137 274 -4 4 -99 -60 -211 -143 -235 -176 -222 -171 -222 -81 0 84
-29 91 -57 15 -18 -50 -20 -51 -21 -10 -2 42 -11 45 -128 45 -138 0 -174 21
-174 100 0 51 1 51 140 43 147 -8 232 22 176 62 -19 14 -17 16 8 8 18 -6 37 0
42 13 5 14 16 17 26 6 11 -10 8 -21 -6 -26 -14 -5 -30 -38 -37 -73 -7 -40 -24
-65 -45 -67 -19 -2 -72 -9 -119 -17 -58 -10 -94 -6 -115 11 -34 28 -62 15 -41
-19 16 -26 271 -28 271 -3 0 35 70 8 92 -35 l22 -43 88 59 c166 112 196 147
227 261 16 61 63 207 105 325 l76 216 -57 101 -57 102 91 83 c85 77 91 88 77
150 l-14 67 -35 -79 c-86 -195 -411 -155 -417 52 l-2 73 -19 -84 c-47 -209
-367 -237 -432 -39 -29 87 -20 113 38 113 40 0 40 1 -5 38 -50 40 -69 255 -32
357 47 127 -155 185 -307 88z m335 -768 c32 -47 71 -116 87 -155 l29 -70 12
120 11 120 4 -105 c4 -128 10 -128 121 -15 49 50 99 90 112 90 32 0 -206 -236
-253 -251 -25 -8 -37 -2 -37 18 0 16 -36 98 -80 181 -90 169 -92 195 -6 67z
m-163 -179 c53 -80 119 -180 146 -222 29 -44 61 -71 76 -65 49 18 28 -44 -26
-79 -40 -26 -46 -38 -25 -51 22 -14 22 -18 -3 -26 -54 -17 -409 -70 -417 -61
-20 20 147 68 236 68 121 0 152 33 48 50 -199 32 -214 39 -259 120 -31 54 -41
97 -33 139 22 114 40 116 51 5 19 -180 121 -254 352 -254 38 0 26 36 -17 50
-22 7 -40 30 -40 51 0 127 -341 368 -458 323 -63 -24 28 84 100 119 96 46 150
13 269 -167z m820 -5 c60 -25 69 -38 69 -100 0 -79 -2 -80 -91 -48 -70 26
-285 -82 -330 -164 -11 -21 -27 -38 -35 -36 -8 1 -18 0 -24 -3 -87 -38 -150
-14 -148 56 4 131 6 138 28 104 11 -16 16 -57 12 -90 -3 -33 -3 -45 2 -26 5
19 20 29 34 24 15 -6 110 62 212 151 102 89 189 161 194 161 4 0 38 -13 77
-29z m-50 -310 c-12 -22 -47 -46 -77 -52 -122 -26 -139 -43 -60 -59 71 -13
133 -59 112 -81 -6 -5 -53 8 -106 31 -73 31 -117 38 -192 28 -72 -10 -98 -6
-98 12 0 14 13 19 31 12 17 -6 26 -3 20 7 -7 10 57 30 142 44 l153 26 42 90
c39 85 42 88 48 37 4 -30 -3 -72 -15 -95z m-498 -292 c-7 -93 -32 -107 -72
-42 -16 27 -13 40 14 55 19 11 35 33 35 49 0 16 7 29 15 29 8 0 12 -41 8 -91z
m137 -454 c-1 -33 -5 -38 -18 -18 -12 19 -21 21 -31 5 -7 -12 -47 -21 -87 -20
l-74 3 76 14 c42 8 86 25 99 38 32 32 35 30 35 -22z"/>
<path d="M2449 3961 c-22 -9 -52 -31 -67 -48 -24 -29 -20 -29 37 0 35 17 94
28 132 23 71 -8 93 10 37 32 -41 16 -88 13 -139 -7z"/>
<path d="M247 3877 c-129 -63 -125 -555 6 -615 191 -87 267 4 267 316 0 299
-83 390 -273 299z m141 -89 c16 -41 16 -395 0 -436 -7 -18 -29 -32 -50 -32
-35 0 -38 18 -38 250 0 232 3 250 38 250 21 0 43 -14 50 -32z"/>
<path d="M1940 3860 c-52 -52 -58 -299 -9 -349 38 -37 111 -41 145 -7 42 42
65 -8 48 -105 -17 -100 -88 -132 -100 -44 -9 58 -124 67 -124 10 2 -150 280
-170 341 -24 44 108 17 476 -38 521 -65 53 -209 52 -263 -2z m170 -172 c0
-125 -4 -138 -40 -138 -48 0 -71 211 -28 262 46 56 68 17 68 -124z"/>
<path d="M2413 3859 c-69 -54 -82 -478 -18 -558 55 -68 184 -77 251 -18 55 47
87 436 45 539 -32 80 -196 102 -278 37z m157 -289 c0 -247 -2 -260 -40 -260
-37 0 -40 15 -46 239 -6 264 0 297 51 287 31 -6 35 -35 35 -266z"/>
<path d="M2527 3570 c1 -121 4 -168 8 -104 4 63 4 162 0 220 -4 57 -8 5 -8
-116z"/>
<path d="M2864 3859 c-74 -68 -67 -518 9 -578 78 -61 222 -47 272 27 8 12 14
130 14 262 0 132 -6 250 -14 262 -50 75 -213 90 -281 27z m166 -289 c0 -247
-2 -260 -40 -260 -37 0 -40 15 -46 239 -6 264 0 297 51 287 31 -6 35 -35 35
-266z"/>
<path d="M3320 3860 c-41 -41 -62 -496 -25 -552 53 -78 216 -91 282 -22 72 78
65 514 -10 573 -69 54 -193 55 -247 1z m170 -290 c0 -247 -2 -260 -40 -260
-37 0 -40 15 -46 239 -6 264 0 297 51 287 31 -6 35 -35 35 -266z"/>
<path d="M3743 3695 c7 -102 14 -205 15 -230 1 -30 15 -45 39 -45 46 0 62 81
63 305 l0 155 -65 0 -65 0 13 -185z"/>
<path d="M2308 3812 c-6 -15 -7 -71 -4 -125 l7 -97 9 125 c10 126 7 148 -12
97z"/>
<path d="M606 3705 c6 -41 22 -158 37 -260 l26 -185 95 0 c108 0 94 -30 142
316 28 201 28 204 -36 204 -46 0 -70 -111 -70 -323 0 -167 -56 -88 -70 98 -16
221 -18 225 -82 225 -50 0 -53 -4 -42 -75z"/>
<path d="M1053 3739 c-71 -56 -82 -387 -15 -448 107 -96 302 -33 302 98 0 87
-115 74 -124 -14 -11 -120 -85 -88 -92 40 l-6 105 111 0 111 0 0 81 c0 156
-164 235 -287 138z m159 -69 c17 -68 -3 -110 -51 -110 -33 0 -41 13 -41 67 0
104 68 136 92 43z"/>
<path d="M1440 3510 l0 -250 60 0 60 0 0 149 c0 144 26 211 81 211 11 0 19 32
19 70 0 72 -27 94 -47 40 -7 -16 -21 -30 -32 -30 -12 0 -21 14 -21 30 0 20
-20 30 -60 30 l-60 0 0 -250z"/>
<path d="M3676 3550 c-13 -144 -8 -171 22 -139 10 11 12 78 4 149 l-13 130
-13 -140z"/>
<path d="M561 3396 c-1 -73 8 -99 37 -115 35 -19 36 -15 19 63 -31 137 -56
160 -56 52z"/>
<path d="M3740 3300 c0 -31 13 -40 60 -40 47 0 60 9 60 40 0 31 -13 40 -60 40
-47 0 -60 -9 -60 -40z"/>
<path d="M938 3236 c-38 -72 -10 -381 46 -493 76 -154 481 -429 428 -291 -7
17 -12 43 -12 57 0 15 -36 32 -85 40 -69 12 -78 18 -45 31 40 16 40 16 0 29
-124 42 -156 114 -99 219 20 39 31 77 23 85 -8 7 -14 3 -14 -10 0 -13 -15 -23
-33 -23 -31 0 -31 3 0 36 48 53 -3 129 -57 84 -27 -23 -32 -48 -22 -129 9 -71
7 -92 -7 -71 -39 58 -25 195 23 228 l44 31 -48 51 c-54 57 -59 55 -80 -34
l-16 -66 -2 60 c-5 196 171 62 261 -197 27 -77 -14 -153 -66 -121 -9 6 -17 1
-17 -11 0 -13 20 -17 52 -9 30 8 58 4 66 -8 70 -114 35 217 -38 358 -41 79
-81 115 -141 128 -31 7 -67 25 -80 41 -33 40 -54 36 -81 -15z"/>
<path d="M2950 3156 c-100 -78 -303 -451 -266 -486 9 -9 79 -15 126 -12 36 2
35 5 -8 27 -70 36 -70 56 -3 157 136 205 244 278 238 162 -2 -47 -4 -48 -11
-9 -10 54 -21 56 -68 13 -34 -31 -34 -35 5 -88 57 -77 3 -273 -58 -211 -8 8 1
26 20 40 63 46 56 177 -10 167 -33 -4 -44 -18 -40 -50 3 -31 -4 -41 -23 -34
-43 17 -59 -31 -24 -70 84 -93 -1 -242 -139 -242 -73 0 -140 -109 -80 -132 95
-37 428 242 472 395 101 348 44 511 -131 373z"/>
<path d="M25 3040 c-30 -47 -36 -889 -7 -871 10 6 29 58 43 116 37 159 155
488 221 618 32 64 58 120 58 125 0 5 -52 15 -115 22 -63 7 -129 17 -145 21
-17 5 -42 -9 -55 -31z"/>
<path d="M3353 2851 c-109 -71 -203 -134 -208 -140 -6 -5 51 -5 127 0 l138 10
-82 -43 -83 -43 -10 -303 c-5 -166 -2 -305 8 -309 9 -3 49 -37 87 -75 39 -37
80 -68 90 -68 11 0 20 -7 20 -15 0 -8 30 -17 67 -20 l67 -5 13 183 c26 361 20
439 -32 419 -60 -23 -186 56 -199 125 -11 58 18 53 116 -21 126 -94 148 -72
148 149 -1 335 4 333 -267 156z"/>
<path d="M3643 2738 l0 -242 164 14 c208 18 196 5 187 202 -8 178 -16 202 -58
176 -39 -25 -74 -27 -87 -6 -7 11 -5 18 5 16 52 -9 76 3 46 22 -52 34 -130 26
-100 -10 14 -16 16 -30 5 -30 -11 0 -36 23 -57 50 -84 112 -106 72 -105 -192z"/>
<path d="M1211 2704 c-25 -25 -9 -66 24 -61 19 3 46 -1 60 -10 15 -9 25 -5 25
11 0 28 -91 78 -109 60z"/>
<path d="M3070 2540 c-55 -32 -99 -66 -98 -74 5 -46 60 -146 80 -146 14 0 23
-31 22 -75 -1 -144 7 -215 21 -193 8 12 30 20 48 17 43 -6 51 28 68 306 16
259 17 258 -141 165z"/>
<path d="M2868 2464 c-35 -5 -48 -35 -84 -207 -45 -213 -119 -397 -144 -357
-9 15 -40 -7 -88 -66 -58 -71 -90 -92 -155 -102 -70 -11 -78 -17 -51 -38 18
-13 47 -51 65 -84 l33 -60 -11 75 c-14 97 19 115 78 43 32 -39 48 -48 48 -27
1 17 -10 42 -23 55 -19 19 -17 24 10 24 19 0 39 22 46 51 10 40 18 45 40 27
15 -12 41 -17 58 -11 16 7 30 4 30 -6 0 -10 -11 -22 -25 -28 -19 -8 -19 -10 1
-11 14 -1 41 25 60 57 19 33 48 64 64 70 17 5 5 7 -25 3 -37 -4 -55 3 -55 21
0 19 15 24 49 16 26 -7 65 -3 85 9 32 18 32 21 2 21 -28 1 -30 11 -15 64 10
34 12 73 5 85 -7 12 6 5 30 -15 55 -49 115 -31 85 25 -12 22 -38 45 -58 51
-34 11 -36 22 -19 100 29 137 15 222 -36 215z"/>
<path d="M1086 2245 c17 -336 62 -428 261 -533 139 -73 232 -87 266 -41 42 56
35 64 -86 99 -199 58 -271 168 -309 472 -24 190 -37 217 -106 218 -35 0 -37
-13 -26 -215z"/>
<path d="M3633 2276 c-25 -323 -19 -427 24 -389 20 18 42 27 50 20 7 -8 13 0
13 18 0 34 53 62 82 44 11 -7 17 0 13 14 -3 18 13 25 50 20 30 -3 55 4 55 16
0 11 17 21 38 21 62 0 60 302 -2 360 -24 22 -49 33 -55 24 -18 -27 -83 -45
-107 -30 -13 8 -37 16 -54 17 -16 2 -44 10 -62 17 -27 12 -34 -10 -45 -152z"/>
<path d="M1340 2352 c0 -33 18 -63 51 -84 64 -42 76 -30 54 55 -22 87 -105
110 -105 29z"/>
<path d="M2559 2307 c-11 -29 -16 -57 -11 -61 16 -16 112 58 112 86 0 51 -80
31 -101 -25z"/>
<path d="M1360 2217 c2 -122 106 -264 217 -296 76 -22 77 -17 13 47 -27 28
-50 62 -50 76 0 13 27 -5 60 -41 33 -36 60 -74 60 -84 0 -11 32 -19 70 -19
115 0 89 34 -172 227 -190 140 -198 144 -198 90z"/>
<path d="M360 2030 c0 -16 -13 -30 -30 -30 -25 0 -24 -6 5 -37 19 -20 42 -33
50 -29 23 12 18 126 -5 126 -11 0 -20 -13 -20 -30z"/>
<path d="M432 2008 c-7 -17 -11 -55 -10 -85 2 -34 6 -40 12 -18 5 20 17 30 28
24 10 -6 18 3 18 21 0 20 9 27 25 18 14 -8 8 5 -13 29 -46 51 -45 51 -60 11z"/>
<path d="M0 1954 c0 -59 14 -76 125 -154 274 -191 289 -209 425 -492 183 -378
345 -506 640 -504 l120 1 -116 17 c-258 38 -447 191 -552 449 -165 406 -199
452 -459 627 l-183 123 0 -67z"/>
<path d="M900 1983 c-71 -20 -152 -48 -180 -62 -116 -61 -280 -168 -280 -183
0 -40 41 -32 112 22 82 62 361 181 422 179 20 0 -23 -21 -94 -47 -271 -96
-329 -141 -298 -227 10 -25 11 -73 4 -108 -9 -46 -6 -59 12 -48 17 10 20 0 10
-40 -10 -41 -8 -51 11 -39 18 11 22 4 13 -25 -40 -125 168 -388 401 -507 103
-52 267 -53 267 0 0 88 144 113 156 27 4 -25 15 -45 24 -45 39 0 38 41 -2 109
-55 93 -45 218 28 378 29 63 58 144 65 179 l12 65 -117 25 c-64 13 -156 51
-206 84 -49 33 -106 60 -126 60 -23 0 -31 9 -22 23 10 16 4 20 -18 11 -18 -7
-37 -5 -43 5 -6 9 11 22 37 29 68 17 48 91 -25 95 -49 2 -50 3 -7 11 49 10 50
53 2 60 -15 2 -86 -12 -158 -31z m190 -225 c37 -17 37 -18 -5 -10 -47 9 -97
-48 -69 -78 8 -9 -10 -11 -40 -6 -30 6 -50 3 -45 -6 6 -9 -17 -54 -50 -100
-33 -45 -66 -115 -72 -155 -32 -188 -69 -196 -69 -16 0 253 186 449 350 371z
m251 -470 c22 -26 22 -34 -1 -48 -35 -22 -100 11 -100 51 0 39 68 37 101 -3z"/>
<path d="M3157 1980 c-18 -11 -38 -42 -45 -70 -13 -49 -15 -50 -71 -20 -68 35
-101 38 -101 11 0 -73 179 -86 233 -18 62 76 52 136 -16 97z"/>
<path d="M3760 1823 c-249 -89 -342 -139 -374 -204 -18 -37 -27 -41 -35 -18
-17 43 -223 35 -268 -9 -29 -30 -29 -36 -3 -55 26 -18 25 -19 -3 -10 -48 15
-58 -30 -26 -120 43 -120 37 -158 -23 -163 -37 -3 -55 7 -62 37 -6 22 -35 53
-64 68 -36 19 -65 61 -90 134 -46 131 -66 157 -117 157 -23 0 -35 10 -30 25
14 37 -21 120 -45 105 -27 -16 -26 -104 1 -121 14 -9 11 -24 -9 -47 -23 -26
-28 -59 -19 -135 8 -66 4 -106 -11 -115 -23 -15 -25 -7 -29 118 -3 93 -91 110
-156 31 -18 -23 -47 -41 -65 -41 -38 0 -63 -47 -81 -150 -7 -45 -22 -94 -33
-110 -16 -23 -18 -19 -8 15 7 25 4 45 -7 45 -23 0 -29 -19 -65 -186 -16 -75
-40 -127 -66 -145 -47 -33 -28 -39 28 -9 32 17 49 -1 127 -137 64 -110 108
-164 149 -181 65 -27 129 -129 164 -262 32 -120 271 -340 370 -340 166 0 421
104 489 198 129 182 145 556 26 619 -99 53 -368 120 -357 90 8 -21 -17 -58
-73 -109 -74 -68 -82 -83 -61 -116 21 -33 17 -40 -27 -51 -71 -18 -80 -2 -42
77 30 63 30 76 -8 195 -22 70 -40 185 -40 257 -1 72 -10 148 -20 170 -16 33
-12 31 22 -7 24 -28 40 -72 38 -110 -1 -35 8 -108 22 -163 13 -55 26 -131 29
-169 7 -88 37 -98 88 -27 34 49 81 263 67 312 -2 10 4 12 14 6 10 -6 30 18 45
53 14 36 39 75 54 86 16 12 25 39 21 60 -10 52 -90 63 -105 15 -6 -20 -8 -12
-4 18 3 30 -4 58 -16 63 -12 5 15 4 60 -2 59 -7 99 1 140 27 l58 36 -45 -50
c-83 -93 -46 -83 64 17 97 90 136 109 379 187 l271 88 0 65 c1 78 18 79 -239
-12z m-1371 -503 c27 0 50 -60 51 -132 0 -23 18 -58 40 -78 22 -20 40 -46 39
-58 0 -12 -26 7 -56 43 -31 36 -66 65 -79 65 -30 0 -59 116 -46 180 7 37 12
41 17 15 5 -19 20 -35 34 -35z m291 -74 c0 -52 -10 -72 -39 -80 -28 -7 -41
-31 -45 -83 l-6 -73 -36 66 c-37 69 -17 141 31 111 12 -7 15 -4 8 8 -7 11 -3
48 9 81 28 83 78 63 78 -30z m-409 -138 c-9 -36 -2 -65 21 -90 19 -21 24 -38
12 -38 -36 0 -69 79 -55 132 6 26 17 48 24 48 6 0 5 -24 -2 -52z m123 -121
c-23 -23 -54 18 -54 71 0 86 28 93 47 13 10 -40 13 -78 7 -84z m603 -395 c-4
-52 -12 -65 -36 -56 -27 10 -27 7 -4 -22 24 -29 23 -35 -6 -47 -27 -10 -29
-16 -8 -29 20 -13 21 -17 2 -18 -14 0 -25 -16 -25 -35 1 -30 3 -31 20 -5 17
26 19 25 20 -5 0 -19 -9 -35 -20 -35 -35 0 -22 -34 40 -100 33 -35 60 -81 60
-101 0 -76 -89 -7 -177 137 l-87 142 106 121 c125 142 121 140 115 53z m-297
-87 c-16 -6 -35 -19 -42 -29 -14 -22 -118 1 -118 26 0 10 43 17 95 16 52 0 82
-6 65 -13z"/>
<path d="M2858 1835 c-2 -14 -2 -31 -1 -39 1 -7 -14 -19 -35 -25 -63 -20 -113
-88 -85 -116 18 -18 38 -18 87 0 73 28 93 19 56 -25 -14 -16 -17 -30 -7 -31 9
0 1 -9 -18 -21 -42 -24 -28 -58 24 -58 57 0 93 198 41 230 -11 7 -20 34 -20
61 0 49 -38 71 -42 24z"/>
<path d="M2920 1842 c0 -12 10 -22 22 -22 17 0 16 -8 -1 -28 -30 -37 -5 -53
99 -62 105 -10 108 38 5 71 -41 13 -86 33 -100 44 -17 13 -25 13 -25 -3z"/>
<path d="M3190 1844 c-7 -8 -24 -14 -37 -14 -28 0 -19 -88 14 -129 19 -23 17
-26 -10 -16 -20 7 -38 1 -45 -16 -12 -33 39 -40 58 -9 7 11 34 20 60 20 29 0
58 17 71 42 18 34 18 39 -2 27 -18 -11 -22 -3 -14 28 6 24 3 43 -8 43 -11 0
-15 7 -10 16 13 19 -58 26 -77 8z"/>
<path d="M2119 1769 c-38 -28 -69 -59 -69 -68 0 -10 -8 -25 -18 -34 -11 -10
-13 -7 -5 7 9 15 0 23 -25 21 -31 -3 -35 -11 -20 -39 13 -24 12 -50 -2 -75
-11 -22 -30 -87 -41 -145 -11 -59 -35 -117 -53 -131 -18 -14 -35 -41 -37 -60
-2 -19 -10 -50 -18 -68 -10 -24 0 -34 43 -42 31 -5 70 -13 86 -17 21 -6 32 11
36 57 7 73 -64 99 -82 30 -5 -19 -10 -8 -12 26 -1 47 11 68 56 95 84 50 101
42 32 -15 -40 -33 -50 -50 -29 -50 17 -1 42 10 55 23 18 18 36 12 76 -25 51
-46 52 -47 31 -5 -13 24 -32 49 -43 56 -11 7 -20 30 -20 52 0 22 -9 35 -20 28
-32 -20 -23 116 11 166 22 31 52 44 100 44 38 0 69 10 69 21 0 13 -19 16 -45
9 -35 -10 -38 -8 -15 8 42 30 80 27 80 -6 0 -15 18 -32 40 -38 47 -12 54 29
11 72 -20 20 -22 35 -7 50 25 25 4 64 -36 64 -17 0 -25 9 -18 20 24 38 -43 20
-111 -31z"/>
<path d="M1805 1786 c-48 -6 -65 -19 -65 -47 0 -26 10 -34 31 -26 21 8 35 -2
43 -30 13 -50 37 -56 53 -13 7 17 26 30 42 30 17 0 31 7 30 15 0 19 -51 86
-61 82 -4 -2 -37 -7 -73 -11z"/>
<path d="M499 1688 c-26 -32 -25 -34 7 -22 30 11 34 6 24 -31 -10 -35 -8 -39
8 -15 18 25 21 25 22 2 0 -16 5 -23 12 -17 6 6 -1 35 -17 65 -26 50 -29 51
-56 18z"/>
<path d="M3315 1680 c-40 -46 -37 -47 35 -20 29 11 47 29 40 40 -18 30 -37 25
-75 -20z"/>
<path d="M3013 1687 c-22 -23 -15 -47 15 -47 15 0 38 14 52 30 26 31 -36 47
-67 17z"/>
<path d="M3962 1601 c-14 -55 -19 -119 -11 -143 7 -24 20 -108 29 -186 13
-124 15 -106 17 143 3 317 1 327 -35 186z"/>
<path d="M5 1245 l5 -415 97 7 c104 7 176 51 159 97 -6 15 8 48 32 74 23 25
36 51 29 58 -8 8 3 14 23 14 46 0 30 208 -25 307 -43 77 -172 213 -203 213
-12 0 -22 14 -22 30 0 19 -19 30 -50 30 l-51 0 6 -415z"/>
<path d="M1720 1629 c0 -17 9 -26 20 -19 12 7 20 -13 20 -49 0 -59 1 -60 40
-26 48 41 51 65 9 65 -16 0 -35 14 -42 30 -15 39 -47 39 -47 -1z"/>
<path d="M2120 1549 c-48 -29 -46 -30 53 -25 57 3 99 -1 94 -9 -5 -8 -44 -15
-87 -15 -81 0 -140 -16 -140 -37 0 -20 126 -15 158 5 22 14 26 9 17 -25 -17
-66 14 -68 62 -3 82 111 -26 187 -157 109z"/>
<path d="M2904 1470 c-42 -42 -43 -48 -13 -78 74 -74 155 -16 112 79 -27 59
-39 59 -99 -1z"/>
<path d="M3585 1474 c-35 -24 -65 -55 -65 -68 0 -14 -13 -20 -30 -13 -27 10
-40 -13 -32 -58 1 -8 -7 -15 -18 -15 -11 0 -20 -12 -20 -27 0 -14 -25 -39 -55
-55 -88 -45 -103 -65 -71 -96 16 -14 24 -38 18 -53 -6 -16 0 -23 16 -17 16 6
31 -8 38 -33 6 -24 21 -37 33 -30 11 7 21 -1 21 -18 0 -17 9 -31 20 -31 11 0
20 9 20 19 0 11 23 -3 50 -31 28 -27 50 -58 50 -69 0 -10 9 -19 20 -19 11 0
20 -14 20 -32 0 -17 18 -57 40 -88 22 -31 63 -104 90 -163 46 -99 60 -102 51
-12 -2 19 5 35 16 35 11 0 20 25 19 55 0 30 14 81 31 114 17 32 27 65 22 73
-5 8 9 10 31 4 28 -8 40 -1 40 22 0 18 14 38 30 45 36 14 41 128 6 163 -17 17
-18 24 -1 24 26 0 -24 110 -50 110 -42 1 -65 40 -65 108 0 74 -57 158 -87 129
-7 -8 -13 0 -13 18 0 65 -85 70 -175 9z"/>
<path d="M1513 1325 c-63 -203 -60 -322 10 -340 20 -5 31 -20 24 -32 -8 -13 8
-4 35 19 26 24 62 48 78 53 25 9 24 13 -6 25 -24 10 -46 3 -66 -22 -29 -36
-29 -36 -10 5 16 32 13 59 -11 106 -30 61 -29 96 4 229 24 93 -27 56 -58 -43z"/>
<path d="M2091 1402 c-11 -19 6 -82 23 -82 35 0 70 65 44 82 -36 22 -53 22
-67 0z"/>
<path d="M1599 1375 c0 -14 -4 -69 -8 -124 -14 -200 157 -273 212 -89 l24 81
-88 78 c-92 80 -138 98 -140 54z"/>
<path d="M2984 1307 c9 -51 56 -57 56 -9 0 25 -13 42 -31 42 -19 0 -29 -14
-25 -33z"/>
<path d="M2020 1190 c0 -67 3 -70 55 -58 73 18 73 17 34 76 -49 75 -89 67 -89
-18z"/>
<path d="M582 1152 c-3 -55 -96 -207 -143 -232 -22 -12 -39 -42 -39 -68 0 -26
-13 -58 -30 -72 -21 -18 -30 -65 -30 -164 0 -83 -12 -162 -28 -193 -26 -47
-132 -379 -132 -411 0 -7 92 -12 205 -12 l205 1 98 111 c94 108 97 115 75 177
-31 87 -29 161 7 232 29 56 28 62 -30 142 -33 46 -83 155 -111 243 -54 170
-54 234 -1 90 l32 -86 -12 79 c-14 98 -64 220 -66 163z"/>
<path d="M1820 1092 c0 -16 -10 -32 -22 -36 -44 -15 85 -140 130 -127 23 7 59
17 81 21 52 12 112 70 71 70 -19 0 -15 9 11 29 37 28 36 30 -18 30 -48 1 -56
-6 -47 -39 6 -22 2 -45 -8 -51 -10 -6 -18 1 -18 17 0 38 -59 86 -125 102 -41
9 -55 5 -55 -16z"/>
<path d="M680 974 c0 -307 324 -659 645 -702 252 -35 351 -46 395 -47 28 0
158 -7 290 -16 283 -17 513 1 498 40 -8 19 -109 26 -434 28 -233 1 -491 9
-574 18 l-150 15 -6 78 c-14 168 117 347 279 383 60 13 79 49 26 49 -121 0
-303 -156 -342 -294 l-28 -96 9 87 c9 93 69 174 182 247 l60 39 -70 -16 c-264
-61 -530 -3 -709 155 -49 43 -71 53 -71 32z m333 -312 c5 -37 1 -62 -12 -62
-11 0 -21 33 -21 73 0 85 18 79 33 -11z"/>
<path d="M1344 936 c-34 -34 -31 -136 5 -136 44 0 91 58 91 111 0 54 -54 67
-96 25z"/>
<path d="M1769 874 c-60 -70 -56 -79 30 -64 46 8 115 14 152 14 38 0 69 8 69
18 0 10 -40 18 -90 18 -49 0 -90 9 -90 20 0 27 -45 24 -71 -6z"/>
<path d="M1485 866 c-75 -15 -50 -46 37 -46 56 0 79 8 73 25 -9 28 -43 34
-110 21z"/>
<path d="M2104 773 c-67 -50 -65 -73 7 -73 57 0 98 48 75 89 -16 27 -26 25
-82 -16z"/>
<path d="M3961 665 c-34 -205 -96 -386 -151 -435 -24 -22 -69 -83 -99 -135
l-55 -95 122 0 121 0 -12 90 c-8 61 -5 90 10 90 13 0 23 -26 23 -58 0 -79 18
-122 52 -122 23 0 28 73 28 410 0 456 -3 478 -39 255z"/>
<path d="M85 785 l-85 -7 0 -189 c0 -120 8 -189 21 -189 12 0 15 11 7 23 -9
15 -4 20 14 14 30 -11 103 52 83 71 -6 7 4 12 24 12 29 0 34 13 27 70 -4 39 0
70 9 70 10 0 15 20 12 45 -3 25 1 56 10 70 9 15 5 24 -11 22 -14 -2 -64 -7
-111 -12z"/>
<path d="M1650 760 c-22 -9 -31 -18 -20 -19 11 -1 3 -15 -19 -32 -36 -27 -34
-29 33 -29 54 0 74 10 81 39 7 26 32 41 78 46 55 7 51 9 -23 10 -49 1 -108 -6
-130 -15z"/>
<path d="M1766 715 c-38 -61 -3 -91 110 -94 39 0 61 7 54 19 -7 11 1 15 17 8
46 -17 64 35 22 65 -46 34 -181 35 -203 2z"/>
<path d="M1529 622 c6 -9 -7 -40 -29 -67 l-39 -50 75 -13 c152 -25 738 -39
751 -17 7 12 -23 50 -66 84 -85 67 -206 101 -230 63 -7 -12 -38 -22 -67 -22
-43 -1 -48 -5 -24 -21 22 -14 10 -18 -44 -12 -40 4 -88 22 -106 40 -35 35
-242 49 -221 15z"/>
<path d="M3640 473 c0 -51 8 -93 19 -93 10 0 22 -16 27 -35 6 -22 10 -14 12
20 1 30 -6 55 -15 55 -9 0 -18 28 -19 62 -3 101 -24 93 -24 -9z"/>
<path d="M1412 399 c-26 -53 -25 -56 25 -68 87 -21 909 -36 958 -18 l44 18
-44 53 -45 53 -455 8 -455 9 -28 -55z"/>
<path d="M181 311 c-36 -27 -92 -55 -123 -62 -56 -12 -58 -16 -58 -131 l0
-118 65 0 c63 0 67 5 129 174 74 202 74 201 -13 137z"/>
<path d="M771 175 c-24 -81 -27 -126 -8 -149 27 -32 327 -38 307 -6 -7 11 -26
20 -42 20 -35 0 -147 76 -184 125 -31 41 -62 45 -73 10z"/>
<path d="M1129 135 c8 -25 15 -55 16 -67 1 -12 51 -23 113 -26 62 -2 149 -13
195 -23 46 -10 307 -17 579 -16 l496 2 -58 47 c-67 53 -219 62 -305 17 -35
-18 -61 -21 -76 -8 -13 11 -37 15 -53 9 -16 -7 -55 -2 -87 10 -32 12 -143 22
-247 22 -125 -1 -209 9 -250 29 -41 19 -104 26 -187 21 -70 -4 -120 0 -114 10
6 10 1 18 -12 18 -15 0 -19 -16 -10 -45z"/>
</g>
</svg>
